<svg xmlns="http://www.w3.org/2000/svg" viewBox="0 0 2828.1875 910.25641"><defs><style>.cls-1{fill:#37603d;}.cls-2{fill:#ed2024;}.cls-3{fill:#f7ec13;}.cls-4{fill:#3953a4;}.cls-5{font-size:264.31851px;fill:#231f20;font-family:NeueHaasGroteskTextPro-BoldItalic, Neue Haas Grotesk Text Pro;font-weight:700;font-style:italic;}.cls-6{letter-spacing:-0.00999em;}.cls-7{letter-spacing:-0.06499em;}.cls-8{letter-spacing:0.015em;}.cls-9{letter-spacing:-0.01999em;}.cls-10{fill:#38613e;font-family:NeueHaasGroteskTextPro, Neue Haas Grotesk Text Pro;font-weight:400;font-style:normal;}</style></defs><g id="Layer_2" data-name="Layer 2"><g id="Layer_1-2" data-name="Layer 1"><path class="cls-1" d="M1432.89218,480.90062a168.24994,168.24994,0,0,1-25.9029,25.9029,166.94878,166.94878,0,0,1-19.81861,13.65772v.05158h376.92308V466.66667h-320.979A167.11612,167.11612,0,0,1,1432.89218,480.90062Z"/><path class="cls-1" d="M1764.09375,53.84615V0H1387.17067V233.38487a166.87711,166.87711,0,0,1,55.94409,53.79462h320.979V233.33333H1441.01683V53.84615Z"/><path d="M1441.01683,376.92308a145.1485,145.1485,0,0,1-1.11286,17.94871,143.18742,143.18742,0,0,1-9.32615,35.89744,143.5397,143.5397,0,0,1-21.05021,35.89744,145.24208,145.24208,0,0,1-22.35694,22.357,143.5395,143.5395,0,0,1-35.89743,21.05013A143.188,143.188,0,0,1,1315.3758,519.4a145.14671,145.14671,0,0,1-17.94872,1.11286H1064.09375V466.66667h233.33333a90.15908,90.15908,0,0,0,17.94872-1.79488q3.64-.743,7.16512-1.76612a90.05067,90.05067,0,0,0,57.17026-50.28516A89.89323,89.89323,0,0,0,1333.32452,294.639a90.89913,90.89913,0,0,0-10.7836-3.8985q-3.52157-1.023-7.16512-1.76612a90.15908,90.15908,0,0,0-17.94872-1.79487V233.33333a145.14866,145.14866,0,0,1,17.94872,1.11286c1.05536.12918,2.10354.27274,3.15181.43066a143.08932,143.08932,0,0,1,32.74563,8.89549,142.98,142.98,0,0,1,29.881,16.48407q3.06921,2.20774,6.01641,4.56614a145.22619,145.22619,0,0,1,22.35694,22.35694,143.53946,143.53946,0,0,1,21.05021,35.89743,143.18742,143.18742,0,0,1,9.32615,35.89744A145.14866,145.14866,0,0,1,1441.01683,376.92308Z"/><path d="M1441.01683,0V53.84615H1207.68349a90.15906,90.15906,0,0,0-17.94871,1.79488q-3.64.743-7.16512,1.76612a90.05067,90.05067,0,0,0-57.17026,50.28516,89.89323,89.89323,0,0,0,46.38666,118.18153,90.89913,90.89913,0,0,0,10.7836,3.8985q3.52156,1.023,7.16512,1.76612a90.15906,90.15906,0,0,0,17.94871,1.79487v53.84616a145.1485,145.1485,0,0,1-17.94871-1.11286c-1.05537-.12918-2.10355-.27273-3.15181-.43075a143.08222,143.08222,0,0,1-32.74563-8.8954,142.98223,142.98223,0,0,1-29.881-16.48407q-3.06921-2.20774-6.01642-4.56614a145.01382,145.01382,0,0,1-22.35693-22.35694,143.53993,143.53993,0,0,1-21.05026-35.89743,143.18742,143.18742,0,0,1-9.32615-35.89744,145.30545,145.30545,0,0,1,0-35.89743,143.18742,143.18742,0,0,1,9.32615-35.89744A143.54017,143.54017,0,0,1,1095.583,53.84615a145.22014,145.22014,0,0,1,22.35693-22.35693A143.53932,143.53932,0,0,1,1153.83734,10.439a143.188,143.188,0,0,1,35.89744-9.32614A145.14655,145.14655,0,0,1,1207.68349,0Z"/><rect class="cls-2" x="1207.68349" y="239.4359" width="89.74359" height="11.48718"/><rect class="cls-3" x="1207.68349" y="254.51282" width="89.74359" height="11.48718"/><rect class="cls-4" x="1207.68349" y="269.58974" width="89.74359" height="11.48718"/><text class="cls-5" transform="translate(0.00024 840.74079)"><tspan class="cls-6">S</tspan><tspan class="cls-7" x="174.71338" y="0">O</tspan><tspan class="cls-8" x="364.76074" y="0">T</tspan><tspan class="cls-9" x="542.38232" y="0">T</tspan><tspan x="710.75537" y="0">O </tspan><tspan class="cls-10" x="977.18701" y="0">ENGINEERING</tspan></text></g></g></svg>