<svg xmlns="http://www.w3.org/2000/svg" viewBox="0 0 700 520.51282"><defs><style>.cls-1{fill:#37603d;}.cls-2{fill:#ed2024;}.cls-3{fill:#f7ec13;}.cls-4{fill:#3953a4;}</style></defs><g id="Layer_2" data-name="Layer 2"><g id="Layer_1-2" data-name="Layer 1"><path class="cls-1" d="M368.79843,480.90062a168.24994,168.24994,0,0,1-25.9029,25.9029,166.94878,166.94878,0,0,1-19.81861,13.65772v.05158H700V466.66667H379.021A167.11612,167.11612,0,0,1,368.79843,480.90062Z"/><path class="cls-1" d="M700,53.84615V0H323.07692V233.38487A166.87711,166.87711,0,0,1,379.021,287.17949H700V233.33333H376.92308V53.84615Z"/><path d="M376.92308,376.92308a145.1485,145.1485,0,0,1-1.11286,17.94871,143.18742,143.18742,0,0,1-9.32615,35.89744,143.5397,143.5397,0,0,1-21.05021,35.89744,145.24208,145.24208,0,0,1-22.35694,22.357,143.5395,143.5395,0,0,1-35.89743,21.05013A143.188,143.188,0,0,1,251.28205,519.4a145.14671,145.14671,0,0,1-17.94872,1.11286H0V466.66667H233.33333a90.15908,90.15908,0,0,0,17.94872-1.79488q3.64-.743,7.16512-1.76612a90.05067,90.05067,0,0,0,57.17026-50.28516A89.89323,89.89323,0,0,0,269.23077,294.639a90.89913,90.89913,0,0,0-10.7836-3.8985q-3.52157-1.023-7.16512-1.76612a90.15908,90.15908,0,0,0-17.94872-1.79487V233.33333a145.14866,145.14866,0,0,1,17.94872,1.11286c1.05536.12918,2.10354.27274,3.15181.43066a143.08932,143.08932,0,0,1,32.74563,8.89549,142.98,142.98,0,0,1,29.881,16.48407q3.06921,2.20774,6.01641,4.56614a145.22619,145.22619,0,0,1,22.35694,22.35694,143.53946,143.53946,0,0,1,21.05021,35.89743,143.18742,143.18742,0,0,1,9.32615,35.89744A145.14866,145.14866,0,0,1,376.92308,376.92308Z"/><path d="M376.92308,0V53.84615H143.58974A90.15906,90.15906,0,0,0,125.641,55.641q-3.64.743-7.16512,1.76612a90.05067,90.05067,0,0,0-57.17026,50.28516,89.89323,89.89323,0,0,0,46.38666,118.18153,90.89913,90.89913,0,0,0,10.7836,3.8985q3.52157,1.023,7.16512,1.76612a90.15906,90.15906,0,0,0,17.94871,1.79487v53.84616a145.1485,145.1485,0,0,1-17.94871-1.11286c-1.05537-.12918-2.10355-.27273-3.15181-.43075a143.08222,143.08222,0,0,1-32.74563-8.8954,142.98223,142.98223,0,0,1-29.881-16.48407q-3.06921-2.20774-6.01642-4.56614a145.01382,145.01382,0,0,1-22.35693-22.35694A143.53993,143.53993,0,0,1,10.439,197.4359a143.18742,143.18742,0,0,1-9.32615-35.89744,145.30545,145.30545,0,0,1,0-35.89743A143.18742,143.18742,0,0,1,10.439,89.74359,143.54017,143.54017,0,0,1,31.48922,53.84615,145.22014,145.22014,0,0,1,53.84615,31.48922,143.53932,143.53932,0,0,1,89.74359,10.439,143.188,143.188,0,0,1,125.641,1.11286,145.14655,145.14655,0,0,1,143.58974,0Z"/><rect class="cls-2" x="143.58974" y="239.4359" width="89.74359" height="11.48718"/><rect class="cls-3" x="143.58974" y="254.51282" width="89.74359" height="11.48718"/><rect class="cls-4" x="143.58974" y="269.58974" width="89.74359" height="11.48718"/></g></g></svg>