<?xml version="1.0" encoding="UTF-8"?><svg id="a" xmlns="http://www.w3.org/2000/svg" viewBox="0 0 9166.5288 3240"><defs><style>.b{fill:blue;}.c{fill:#37603d;}.d{fill:red;}.e{fill:#ff0;}</style></defs><rect x="3239.99948" width="194.39997" height="3239.99948"/><g><path d="M4262.40219,1850.12192c-149.95643,0-265.31613-32.65143-346.07908-97.94498-80.79088-65.2982-122.6197-155.01983-125.52371-269.17883h246.69141c7.7254,57.09346,29.24481,100.37429,64.57686,129.87506,35.29482,29.51939,89.24227,44.25814,161.78653,44.25814,54.17084,0,98.42898-11.61136,132.78372-34.82943,34.32682-23.21807,51.50884-56.09288,51.50884-98.67098,0-19.34141-4.59801-36.03013-13.78471-50.06614-9.20532-14.0081-23.22272-26.59211-42.08013-37.72413-18.86672-11.1134-41.85675-21.99411-68.93286-32.65143-27.08542-10.63405-58.04285-21.76607-92.87228-33.37743-45.47745-15.4601-87.79027-31.67412-126.9571-48.60949-39.18544-16.9121-73.28887-37.00278-102.31029-60.22085-29.02142-23.21807-52.01146-51.01553-68.92355-83.43427-16.94002-32.40012-25.40073-71.83221-25.40073-118.2637,0-49.34014,9.1867-94.54767,27.56942-135.67841,18.37341-41.10748,45.21683-76.18356,80.53957-105.20499,35.30412-29.02142,79.08757-51.74153,131.32241-68.20221,52.24415-16.43741,112.21369-24.66542,179.93655-24.66542,124.79771,0,222.49138,28.06738,293.11824,84.16027,70.60825,56.11615,110.27769,135.45038,118.9897,237.9794h-237.9794c-4.84931-41.58217-22.99003-75.20626-54.41284-100.84898-31.44143-25.62411-74.25687-38.45478-128.4184-38.45478-52.24415,0-93.12359,10.88071-122.6197,32.65143-29.51473,21.76607-44.25814,49.58214-44.25814,83.43427,0,17.41472,4.57939,32.89808,13.78471,46.43614,9.1867,13.55667,23.68811,26.11742,43.53214,37.72878,19.8161,11.60671,44.25814,22.99003,73.27956,34.09878,29.03073,11.13202,63.35755,22.99003,103.02699,35.55078,41.58683,13.56133,81.48896,29.02142,119.7157,46.43614,38.19882,17.41472,71.83687,38.22674,100.85829,62.39885,29.02142,24.19073,51.97422,53.21215,68.91425,87.06427,16.92141,33.87539,25.39142,74.50352,25.39142,121.88905,0,51.29011-10.1454,98.67563-30.45481,142.20777-20.32803,43.53214-49.34945,81.03288-87.08289,112.46034-37.71482,31.45073-83.43427,55.86484-137.12111,73.27956-53.68684,17.41472-114.41031,26.11742-182.11455,26.11742Z"/><path d="M5285.41204,1850.12192c-73.53087,0-140.02511-11.85802-199.51996-35.54613-59.49485-23.69742-110.0543-56.82354-151.64113-99.40163-41.60544-42.55948-73.77287-93.34697-96.50228-152.36713-22.72942-58.99223-34.10343-124.29509-34.10343-195.89461,0-88.01831,14.27802-170.97789,42.81544-248.86011,28.51881-77.86361,68.67225-145.83777,120.4417-203.88062,51.73222-58.04285,113.40508-103.98103,185.01856-137.85176,71.57625-33.85212,150.91513-50.78749,237.9794-50.78749,73.49364,0,139.5225,11.60671,198.06796,34.82478,58.50823,23.21807,108.58369,56.11615,150.18913,98.67563,41.58683,42.5781,73.49364,93.36559,95.77628,152.36248,22.2268,59.02016,33.35881,123.83901,33.35881,194.44726,0,89.96362-14.03602,174.12854-42.07083,252.48546-28.07204,78.36157-67.48086,146.56378-118.2637,204.60662-50.78284,58.04285-111.99031,103.75299-183.56656,137.13042-71.59487,33.36812-150.91513,50.05684-237.9794,50.05684Zm5.80801-197.34661c53.18423,0,100.35567-12.33271,141.47711-37.00278,41.10282-24.66542,75.46687-57.79154,103.03629-99.39698,27.56942-41.58217,48.36283-89.24227,62.39885-142.93377,13.99879-53.6915,21.03541-109.05838,21.03541-166.15184,0-43.53214-5.32401-82.9363-15.97202-118.2637-10.64801-35.29947-26.11742-65.52159-46.42683-90.68962-20.30941-25.14476-45.47745-44.73748-75.46687-58.76885-29.98943-14.01275-64.81886-21.04007-104.46968-21.04007-52.23484,0-98.43829,12.83067-138.57311,38.45013-40.15344,25.64738-74.01487,59.27146-101.58429,100.85364-27.56942,41.60544-48.60484,89.24227-63.12485,142.92912-14.5014,53.6915-21.76141,108.10899-21.76141,163.24784,0,42.58275,5.08201,81.51223,15.22741,116.8117,10.16401,35.32739,25.14942,65.80082,44.99345,91.42028,19.8068,25.64273,44.73283,45.4821,74.72226,59.49485,29.98943,14.03602,64.80024,21.04007,104.4883,21.04007Z"/><path d="M5952.9234,744.3945h875.01734l-40.63744,206.05397h-317.78366l-168.32054,873.55603h-242.33541l168.32054-873.55603h-314.87966l40.61882-206.05397Z"/><path d="M6928.05442,744.3945h875.01734l-40.63744,206.05397h-317.78366l-168.32054,873.55603h-242.33541l168.32054-873.55603h-314.87966l40.61882-206.05397Z"/><path d="M8228.24772,1850.12192c-73.53087,0-140.02511-11.85802-199.51996-35.54613-59.49485-23.69742-110.0543-56.82354-151.64113-99.40163-41.60544-42.55948-73.77287-93.34697-96.50228-152.36713-22.72942-58.99223-34.10343-124.29509-34.10343-195.89461,0-88.01831,14.27802-170.97789,42.81544-248.86011,28.51881-77.86361,68.67225-145.83777,120.4417-203.88062,51.73222-58.04285,113.40508-103.98103,185.01856-137.85176,71.57625-33.85212,150.91513-50.78749,237.9794-50.78749,73.49364,0,139.5225,11.60671,198.06796,34.82478,58.50823,23.21807,108.58369,56.11615,150.18913,98.67563,41.58683,42.5781,73.49364,93.36559,95.77628,152.36248,22.2268,59.02016,33.35881,123.83901,33.35881,194.44726,0,89.96362-14.03602,174.12854-42.07083,252.48546-28.07204,78.36157-67.48086,146.56378-118.2637,204.60662-50.78284,58.04285-111.99031,103.75299-183.56656,137.13042-71.59487,33.36812-150.91513,50.05684-237.9794,50.05684Zm5.80801-197.34661c53.18423,0,100.35567-12.33271,141.47711-37.00278,41.10282-24.66542,75.46687-57.79154,103.03629-99.39698,27.56942-41.58217,48.36283-89.24227,62.39885-142.93377,13.99879-53.6915,21.03541-109.05838,21.03541-166.15184,0-43.53214-5.32401-82.9363-15.97202-118.2637-10.64801-35.29947-26.11742-65.52159-46.42683-90.68962-20.30941-25.14476-45.47745-44.73748-75.46687-58.76885-29.98943-14.01275-64.81886-21.04007-104.46968-21.04007-52.23484,0-98.43829,12.83067-138.57311,38.45013-40.15344,25.64738-74.01487,59.27146-101.58429,100.85364-27.56942,41.60544-48.60484,89.24227-63.12485,142.92912-14.5014,53.6915-21.76141,108.10899-21.76141,163.24784,0,42.58275,5.08201,81.51223,15.22741,116.8117,10.16401,35.32739,25.14942,65.80082,44.99345,91.42028,19.8068,25.64273,44.73283,45.4821,74.72226,59.49485,29.98943,14.03602,64.80024,21.04007,104.4883,21.04007Z"/></g><g><path class="c" d="M3790.7997,1959.30773h386.59208v65.93043h-312.04574v164.07687h282.07736v62.18439h-282.07736v183.55632h320.28705v68.17806h-394.83339v-543.92607Z"/><path class="c" d="M4277.78586,1959.30773h78.6716l222.55314,340.59987c6.80796,10.23354,13.74029,21.56519,20.79699,33.99032,7.04749,12.42974,13.50077,24.24584,19.33683,35.45291,6.80796,12.67428,13.61132,25.57925,20.4285,38.73337h2.19255c-.98112-13.63396-1.95303-27.28176-2.92033-40.92957-.98112-11.69153-1.58453-24.35657-1.82406-38.00899-.24873-13.63396-.36389-26.05909-.36389-37.27539v-332.56252h70.05108v543.55147h-77.47509l-222.19184-340.5845c-6.82844-10.23308-13.77222-21.43503-20.83135-33.61969-7.06836-12.17543-13.77222-23.86643-20.10237-35.08222-7.30827-12.66448-14.37663-25.57809-21.19584-38.74085h-1.45796c.47984,13.6518,1.20882,27.29899,2.19156,40.93695,.47984,11.691,.9689,24.11557,1.46258,37.27371,.47984,13.15353,.72898,25.33818,.72898,36.54013v333.65108h-70.05108v-543.92607Z"/><path class="c" d="M5223.80401,2426.06523h-2.02752c-19.49024,29.715-43.47254,51.87096-71.96536,66.48172-28.49282,14.61076-60.52765,21.92075-96.07681,21.92075-37.98889,0-72.57876-6.94103-103.74653-20.8231-31.177-13.88207-57.968-33.24317-80.36378-58.0833-22.89849-24.84013-40.43324-54.43061-52.60426-88.76681-12.18024-34.34082-18.26806-72.2098-18.26806-113.61156,0-41.39254,5.84799-79.51057,17.53937-114.34025,11.68676-34.81585,28.97247-65.13963,51.87096-90.96212,21.91614-24.84013,48.82244-44.31192,80.73274-58.44765,31.89647-14.12189,69.04137-21.18744,111.41626-21.18744,32.14551,0,60.75364,4.14617,85.84743,12.42007,25.07996,8.28773,46.87157,19.85458,65.38868,34.70516,18.50327,14.86442,33.60751,32.63438,45.29889,53.33296,11.68676,20.71241,20.20509,43.47254,25.56883,68.31268h-77.53954c-8.28717-30.68145-24.10982-55.75973-47.48639-75.24865-23.37657-19.47509-56.01337-29.21955-97.89196-29.21955-31.66835,0-59.17698,5.60318-82.55354,16.80032-23.37657,11.21097-42.62568,26.66469-57.71508,46.39342-15.10323,19.72412-26.30037,43.10069-33.60525,70.13431-7.30489,27.02901-10.95733,56.13788-10.95733,87.29895,0,32.14335,4.49638,61.49204,13.5122,88.03221,9.0066,26.55401,21.55496,49.31261,37.62663,68.30809,16.07168,18.99548,35.30696,33.72977,57.71508,44.19827,22.39428,10.47772,46.99294,15.70736,73.78214,15.70736,26.77998,0,50.28567-4.25657,70.50324-12.78355,20.20374-8.51776,36.88876-20.09306,50.04125-34.70283,13.14788-14.60978,23.01224-31.52539,29.58388-50.7699,6.57624-19.2399,9.86437-39.56815,9.86437-61.00781v-11.68598h-157.70859v-63.3082h231.50572v287.69643h-47.54088l-19.74676-76.79397Z"/><path class="c" d="M5391.48572,1959.30773h74.54634v543.92607h-74.54634v-543.92607Z"/><path class="c" d="M5579.9119,1959.30773h78.6716l222.55314,340.59987c6.80796,10.23354,13.74029,21.56519,20.79699,33.99032,7.04749,12.42974,13.50077,24.24584,19.33683,35.45291,6.80796,12.67428,13.61593,25.57925,20.4331,38.73337h2.18794c-.98112-13.63396-1.94842-27.28176-2.92033-40.92957-.98112-11.69153-1.58453-24.35657-1.82406-38.00899-.24873-13.63396-.36389-26.05909-.36389-37.27539v-332.56252h70.05108v543.55147h-77.47509l-222.19184-340.5845c-6.83305-10.23308-13.77222-21.43503-20.83135-33.61969-7.06836-12.17543-13.77222-23.86643-20.09775-35.08222-7.31289-12.66448-14.38124-25.57809-21.19584-38.74085h-1.46258c.47984,13.6518,1.20882,27.29899,2.19156,40.93695,.47984,11.691,.9689,24.11557,1.46258,37.27371,.47984,13.15353,.72898,25.33818,.72898,36.54013v333.65108h-70.05108v-543.92607Z"/><path class="c" d="M6121.21574,1959.30773h386.96669v65.93043h-312.04574v164.07687h282.07736v62.18439h-282.45197v183.55632h320.28705v68.17806h-394.83339v-543.92607Z"/><path class="c" d="M6608.20189,1959.30773h386.59208v65.93043h-312.04574v164.07687h282.07736v62.18439h-282.07736v183.55632h320.28705v68.17806h-394.83339v-543.92607Z"/><path class="c" d="M7094.81344,1959.30773h254.60895c24.30074,0,46.41074,3.54313,66.3484,10.59709,19.92845,7.07242,37.05863,17.17587,51.40436,30.33343,14.32731,13.15294,25.39152,28.99091,33.1696,47.50007,7.76887,18.52761,11.66712,38.99287,11.66712,61.39578,0,33.1384-7.54336,61.27583-22.60245,84.41228-15.0683,23.14567-40.58869,40.31693-76.55655,51.523v2.19139c15.0637,4.38278,27.71113,10.23263,37.91468,17.54033,10.20815,7.3077,18.46949,16.20243,24.7886,26.67496,6.31451,10.48176,11.0504,23.02111,14.21686,37.63652,3.15726,14.62002,5.47227,31.68055,6.92663,51.16315,1.45897,21.44331,3.15726,39.34811,5.10408,53.71439,1.93762,14.37551,3.88444,26.0706,5.83586,35.08067,1.93301,9.01929,4.0087,15.83797,6.19485,20.46065,2.18615,4.63652,4.74049,7.92591,7.65381,9.86817v3.83422h-79.6307c-2.91922-2.43208-5.36344-6.08713-7.30498-10.96513-1.95076-4.86878-3.65249-11.93889-5.11441-21.20111-1.45731-9.25299-2.67941-21.0765-3.65249-35.45671-.97769-14.37097-2.19057-32.53082-3.6571-54.46571-2.4396-38.49335-12.17957-65.54622-29.2199-81.154-17.05417-15.58932-43.35485-23.39321-78.90204-23.39321h-144.64683v226.63586h-74.54634v-543.92607Zm74.54634,257.35345h155.65278c37.01494,0,64.67004-8.6402,82.93763-25.93906,18.27682-17.28963,27.41061-40.79762,27.41061-70.51936,0-32.1528-8.16506-56.26971-24.48595-72.35073-16.33012-16.0764-43.7315-24.1123-82.20877-24.1123h-159.3063v192.92144Z"/><path class="c" d="M7608.02192,1959.30773h74.54634v543.92607h-74.54634v-543.92607Z"/><path class="c" d="M7796.4481,1959.30773h78.6716l222.55314,340.59987c6.80796,10.23354,13.74029,21.56519,20.79699,33.99032,7.04749,12.42974,13.50077,24.24584,19.33683,35.45291,6.80796,12.67428,13.61593,25.57925,20.4331,38.73337h2.18794c-.98112-13.63396-1.94842-27.28176-2.92033-40.92957-.98112-11.69153-1.58453-24.35657-1.82406-38.00899-.24873-13.63396-.36389-26.05909-.36389-37.27539v-332.56252h70.05108v543.55147h-77.47509l-222.19184-340.5845c-6.83305-10.23308-13.77222-21.43503-20.83135-33.61969-7.06836-12.17543-13.77222-23.86643-20.09775-35.08222-7.31289-12.66448-14.38124-25.57809-21.19584-38.74085h-1.46258c.47984,13.6518,1.20882,27.29899,2.19156,40.93695,.47984,11.691,.9689,24.11557,1.46258,37.27371,.47984,13.15353,.72898,25.33818,.72898,36.54013v333.65108h-70.05108v-543.92607Z"/><path class="c" d="M8742.84086,2426.06523h-2.1285c-19.48562,29.715-43.47254,51.87096-71.96536,66.48172-28.49282,14.61076-60.52304,21.92075-96.07219,21.92075-37.99351,0-72.58337-6.94103-103.75114-20.8231-31.17239-13.88207-57.968-33.24317-80.36378-58.0833-22.89849-24.84013-40.43324-54.43061-52.60426-88.76681-12.18024-34.34082-18.26345-72.2098-18.26345-113.61156,0-41.39254,5.84338-79.51057,17.53475-114.34025,11.69137-34.81585,28.97247-65.13963,51.87096-90.96212,21.92075-24.84013,48.82705-44.31192,80.73274-58.44765,31.89647-14.12189,69.04137-21.18744,111.42087-21.18744,32.14551,0,60.75364,4.14617,85.84282,12.42007,25.07996,8.28773,46.87157,19.85458,65.38868,34.70516,18.50327,14.86442,33.60751,32.63438,45.29889,53.33296,11.68676,20.71241,20.20509,43.47254,25.56883,68.31268h-77.43856c-8.28717-30.68145-24.10521-55.75973-47.48639-75.24865-23.37657-19.47509-56.00876-29.21955-97.89196-29.21955-31.66835,0-59.17698,5.60318-82.55354,16.80032-23.37657,11.21097-42.62568,26.66469-57.71508,46.39342-15.10323,19.72412-26.30037,43.10069-33.60525,70.13431-7.30489,27.02901-10.95733,56.13788-10.95733,87.29895,0,32.14335,4.49638,61.49204,13.51681,88.03221,9.0066,26.55401,21.55034,49.31261,37.62202,68.30809,16.07168,18.99548,35.30696,33.72977,57.71046,44.19827,22.39889,10.47772,46.99755,15.70736,73.79136,15.70736,26.77998,0,50.28106-4.25657,70.49863-12.78355,20.20374-8.51776,36.89338-20.09306,50.04125-34.70283,13.14788-14.60978,23.01224-31.52539,29.58849-50.7699,6.57163-19.2399,9.85975-39.56815,9.85975-61.00781v-11.68598h-157.70859v-63.3082h231.50572v287.69643h-47.54088l-19.74676-76.79397Z"/></g><g><path d="M1717.19973,680.39989v194.39997H874.79986c-22.1904,0-43.86242,2.232-64.79999,6.48-8.75883,1.7784-17.39162,3.90959-25.8768,6.37919-13.35239,3.88441-26.34482,8.60401-38.92319,14.10121-23.1336,10.10878-44.85959,22.83838-64.79999,37.81797-24.54477,18.43202-46.38959,40.27684-64.82161,64.82161-14.97955,19.9404-27.70919,41.66639-37.81797,64.79999-8.98923,20.57396-15.90479,42.2604-20.4804,64.79999-4.24799,20.93757-6.48,42.60959-6.48,64.79999s2.232,43.86238,6.48,64.79999c4.57561,22.53959,11.49117,44.22603,20.4804,64.79999,10.10878,23.1336,22.83842,44.85954,37.81797,64.79999,18.43202,24.54477,40.27684,46.38954,64.82161,64.82161,19.9404,14.97955,41.66639,27.70919,64.79999,37.81792,12.57838,5.49721,25.57081,10.21684,38.92319,14.10126,8.48518,2.46964,17.11797,4.60081,25.8768,6.37919,20.93757,4.24802,42.60959,6.48,64.79999,6.48v194.39997c-21.94558,0-43.57441-1.36441-64.79999-4.01396-3.80883-.47162-7.59959-.98648-11.37959-1.54441-18.12959-2.66766-35.95319-6.27838-53.4204-10.77117-22.21198-5.71684-43.84441-12.87-64.79999-21.35522-38.46959-15.57-74.64242-35.62567-107.87399-59.51522-7.39079-5.3136-14.63398-10.81802-21.72599-16.50243-29.76479-23.85712-56.8404-50.93278-80.69758-80.69756-31.25159-38.9808-56.9844-82.57323-76.0176-129.59998-8.4852-20.95558-15.6384-42.58801-21.3552-64.79999-5.43239-21.11045-9.56878-42.73918-12.31558-64.79999-2.64962-21.22558-4.01401-42.85441-4.01401-64.79999s1.36439-43.57441,4.01401-64.79999c2.7468-22.06081,6.8832-43.68959,12.31558-64.79999,5.7168-22.21198,12.87-43.84441,21.3552-64.79999,19.0332-47.02679,44.76601-90.6192,76.0176-129.59998,23.85718-29.76479,50.93278-56.8404,80.69758-80.6976,38.9808-31.25159,82.57319-56.98438,129.59998-76.01758,20.95558-8.4852,42.58801-15.6384,64.79999-21.3552,21.1104-5.43241,42.73918-9.5688,64.79999-12.31561,21.22558-2.64959,42.85441-4.01399,64.79999-4.01399h842.39987Z"/><path class="c" d="M2883.59954,1522.79976v194.39997H1717.75766c-4.73027-7.22883-9.61558-14.34603-14.65189-21.34801-6.07324-8.44558-12.35883-16.71838-18.85324-24.82198-27.25919-34.00558-58.19396-64.94044-92.19954-92.19602-8.1-6.49441-16.37648-12.78351-24.82207-18.85315-14.34234-10.31036-29.1672-19.99801-44.43116-29.01603V874.79986h194.39997v647.9999h1166.39981Z"/><rect class="c" x="1717.19973" y="680.39989" width="1166.39981" height="194.39997"/><path d="M1717.19973,2041.19968c0,21.94558-1.36441,43.57441-4.01396,64.79999-2.74693,22.06072-6.88324,43.68954-12.31558,64.79999-5.71693,22.21207-12.87,43.84441-21.35531,64.79999-15.56991,38.46954-35.62558,74.64233-59.51513,107.87395-5.3136,7.3909-10.81802,14.63396-16.50243,21.72603-23.85712,29.76486-50.93278,56.84044-80.69756,80.69764-38.9808,31.25144-82.57323,56.9844-129.59998,76.01747-20.95558,8.48531-42.58801,15.63838-64.79999,21.35531-21.11045,5.43234-42.73918,9.56865-64.79999,12.31558-21.22558,2.64955-42.85441,4.01396-64.79999,4.01396H356.39994v-194.39997h842.39987c22.19045,0,43.86242-2.23207,64.79999-6.48,8.75883-1.77838,17.39162-3.90955,25.87675-6.37928,13.35243-3.88424,26.34486-8.60396,38.92324-14.10117,23.1336-10.10883,44.85954-22.83838,64.79999-37.81792,24.54477-18.43207,46.38954-40.27675,64.82161-64.82161,14.97955-19.94045,27.70919-41.66648,37.81792-64.79999,8.98928-20.57396,15.90486-42.26044,20.48045-64.79999,4.24802-20.93765,6.48-42.60954,6.48-64.79999s-2.23198-43.86242-6.48-64.79999c-4.57559-22.53955-11.49117-44.22603-20.48045-64.79999-10.10874-23.1336-22.83838-44.85954-37.81792-64.79999-18.43207-24.54477-40.27684-46.38954-64.82161-64.82161-19.94045-14.97955-41.66639-27.70919-64.79999-37.81792-12.57838-5.49721-25.57081-10.21684-38.92324-14.10126-8.48514-2.46964-17.11793-4.60081-25.87675-6.37919-20.93757-4.24802-42.60954-6.48-64.79999-6.48v-194.39997c21.94558,0,43.57441,1.36441,64.79999,4.01396,3.80883,.47162,7.59955,.98648,11.37955,1.54441,18.12964,2.66766,35.95324,6.27838,53.42044,10.77117,22.21198,5.71684,43.84441,12.87,64.79999,21.35522,38.46954,15.57,74.64242,35.62567,107.87395,59.51522,7.39081,5.3136,14.63405,10.81802,21.72603,16.50234,29.76477,23.8572,56.84044,50.93287,80.69756,80.69764,5.68441,7.09198,11.18883,14.33522,16.50243,21.72603,23.88955,33.23153,43.94522,69.4044,59.51513,107.87395,8.48531,20.95558,15.63838,42.58801,21.35531,64.79999,5.43234,21.11045,9.56865,42.73918,12.31558,64.79999,2.64955,21.22558,4.01396,42.85441,4.01396,64.79999Z"/><path class="c" d="M2883.59954,2365.19962v194.39997H1522.79976v-8.16117c24.24955-14.33162,47.38675-30.34089,69.25323-47.87279,34.00558-27.25558,64.94035-58.19044,92.19954-92.19602,6.49441-8.10351,12.78-16.37648,18.85324-24.82207,5.03631-7.00189,9.92162-14.1191,14.65189-21.34793h1165.84188Z"/><rect class="d" x="874.79986" y="1542.23975" width="323.99995" height="38.87999"/><rect class="e" x="874.799" y="1600.55975" width="323.99995" height="38.87999"/><rect class="b" x="874.79986" y="1658.87974" width="323.99995" height="38.87999"/></g></svg>