<svg xmlns="http://www.w3.org/2000/svg" version="1.1" xmlns:xlink="http://www.w3.org/1999/xlink" width="512" height="512" x="0" y="0" viewBox="0 0 500 500" style="enable-background:new 0 0 512 512" xml:space="preserve" class=""><g><path fill="#7dea5d" d="m250.003 389.524-225-129.904 224.994-129.9 224.999 129.904z" opacity="1" data-original="#7dea5d" class=""></path><path fill="#6fd450" d="m307.985 175.152-68.339-39.456 10.351-5.976 68.338 39.455zM237.748 215.702l-68.338-39.455 10.351-5.976 68.338 39.455z" opacity="1" data-original="#6fd450"></path><path fill="#d7daff" d="M263.106 183.816c-10.622 6.132-27.844 6.132-38.465-.001-10.622-6.133-10.622-16.076-.001-22.208 10.622-6.132 27.843-6.132 38.466 0 10.621 6.133 10.621 16.076 0 22.209z" opacity="1" data-original="#d7daff"></path><g fill="#aeb2f4"><path d="m236.111 180.188-5.19-2.996 20.713-11.958 5.189 2.996z" fill="#aeb2f4" opacity="1" data-original="#aeb2f4" class=""></path><path d="m256.824 177.192-5.19 2.996-20.713-11.958 5.19-2.996z" fill="#aeb2f4" opacity="1" data-original="#aeb2f4" class=""></path></g><path fill="#6fd450" d="m165.545 257.389-68.339-39.456 10.351-5.976 68.339 39.456z" opacity="1" data-original="#6fd450"></path><path fill="#d7daff" d="M190.902 225.502c-10.622 6.132-27.843 6.132-38.466 0-10.622-6.133-10.622-16.075 0-22.208s27.843-6.132 38.465 0c10.623 6.133 10.623 16.075.001 22.208z" opacity="1" data-original="#d7daff"></path><g fill="#aeb2f4"><path d="m163.908 221.875-5.19-2.997 20.712-11.958 5.191 2.997z" fill="#aeb2f4" opacity="1" data-original="#aeb2f4" class=""></path><path d="m184.621 218.879-5.19 2.996-20.713-11.958 5.19-2.997z" fill="#aeb2f4" opacity="1" data-original="#aeb2f4" class=""></path></g><path fill="#6fd450" d="M93.342 299.075 25.003 259.62l10.351-5.976 68.339 39.455z" opacity="1" data-original="#6fd450"></path><path fill="#d7daff" d="M118.699 267.188c-10.622 6.132-27.843 6.132-38.465 0-10.622-6.133-10.622-16.076 0-22.208s27.844-6.132 38.466.001c10.62 6.132 10.621 16.075-.001 22.207z" opacity="1" data-original="#d7daff"></path><g fill="#aeb2f4"><path d="m91.705 263.561-5.19-2.996 20.713-11.958 5.189 2.996z" fill="#aeb2f4" opacity="1" data-original="#aeb2f4" class=""></path><path d="m112.417 260.565-5.189 2.997-20.713-11.959 5.189-2.996z" fill="#aeb2f4" opacity="1" data-original="#aeb2f4" class=""></path></g><path fill="#d7daff" d="M453.666 173.917c0 3.858-2.84 7.936-8.374 11.139l-11.722 6.699c-10.048 5.825-25.265 6.48-34.004 1.456l-114.678-66.186c-3.932-2.256-5.897-5.315-5.897-8.518 0-3.859 2.839-7.937 8.373-11.14l11.723-6.771c10.047-5.825 25.265-6.481 34.002-1.384l114.679 66.186c3.932 2.257 5.898 5.315 5.898 8.519z" opacity="1" data-original="#d7daff"></path><path fill="#aeb2f4" d="M453.645 173.908v84.275c0 3.807-2.81 7.884-8.337 11.146l-11.779 6.706c-7.613 4.44-18.396 5.891-26.915 3.988-2.627-.544-4.983-1.359-7.068-2.538l-114.634-66.243c-3.987-2.265-5.889-5.255-5.889-8.517V118.54c0 3.173 1.903 6.252 5.889 8.518l114.634 66.152c2.084 1.178 4.44 1.993 7.068 2.538 8.519 1.902 19.302.454 26.915-3.987l11.779-6.706c5.527-3.174 8.337-7.251 8.337-11.147z" opacity="1" data-original="#aeb2f4" class=""></path><path fill="#888abf" d="M453.645 173.908v84.275c0 3.807-2.81 7.884-8.337 11.146l-11.779 6.706c-7.613 4.44-18.396 5.891-26.915 3.988v-84.276c8.519 1.902 19.302.454 26.915-3.987l11.779-6.706c5.527-3.173 8.337-7.25 8.337-11.146z" opacity="1" data-original="#888abf"></path><path fill="#5d7280" d="M329.862 233.037c0 2.899-2.175 5.981-6.253 8.337-4.168 2.356-9.514 3.624-14.588 3.624-4.168 0-8.156-.814-11.055-2.536l-43.679-25.192c-2.991-1.722-4.44-3.988-4.44-6.434 0-2.899 2.175-5.981 6.343-8.337 4.078-2.447 9.425-3.624 14.5-3.624 4.168 0 8.155.815 11.146 2.537l43.587 25.192c2.989 1.722 4.439 3.988 4.439 6.433z" opacity="1" data-original="#5d7280"></path><path fill="#3b4951" d="M329.862 233.037v37.154c0 2.9-2.175 5.981-6.253 8.428-4.168 2.357-9.423 3.625-14.497 3.625-4.169 0-8.157-.907-11.146-2.628l-43.679-25.192c-2.991-1.722-4.44-3.987-4.44-6.434v-37.154c0 2.446 1.449 4.711 4.44 6.434l43.679 25.192c2.899 1.722 6.887 2.536 11.055 2.536 5.074 0 10.42-1.268 14.588-3.624 4.079-2.355 6.253-5.437 6.253-8.337z" opacity="1" data-original="#3b4951"></path><path fill="#ed484f" d="M311.83 271.189c0 2.899-2.084 5.98-6.254 8.336-4.168 2.357-9.514 3.625-14.588 3.625-4.169 0-8.066-.815-11.055-2.538l-91.707-52.921c-2.99-1.721-4.44-3.987-4.44-6.433 0-2.901 2.175-5.981 6.252-8.428 4.169-2.356 9.425-3.625 14.5-3.625 4.168 0 8.155.907 11.146 2.628l91.706 52.921c2.989 1.723 4.44 4.079 4.44 6.435z" opacity="1" data-original="#ed484f"></path><path fill="#e50000" d="M311.83 271.189v37.152c0 2.901-2.084 5.982-6.254 8.428-4.168 2.356-9.423 3.625-14.407 3.625-4.169 0-8.247-.906-11.237-2.628l-91.707-52.921c-2.99-1.722-4.44-3.987-4.44-6.434v-37.153c0 2.447 1.451 4.712 4.44 6.433l91.707 52.921c2.989 1.723 6.886 2.538 11.055 2.538 5.074 0 10.42-1.269 14.588-3.625 4.17-2.356 6.255-5.437 6.255-8.336z" opacity="1" data-original="#e50000"></path><path fill="#f6d13a" d="M250.255 304.204c-.091 9.968-3.625 17.036-9.333 20.389l-31.481 18.187c5.709-3.263 9.243-10.331 9.333-20.389 0-20.117-14.136-44.676-31.716-54.825-8.79-5.075-16.763-5.528-22.473-2.175l31.39-18.276c5.8-3.354 13.774-2.81 22.564 2.266 17.58 10.057 31.716 34.706 31.716 54.823z" opacity="1" data-original="#f6d13a"></path><path fill="#f3ae00" d="M187.093 267.589c17.53 10.121 31.717 34.693 31.66 54.836-.057 20.145-14.336 28.282-31.867 18.16-17.531-10.121-31.659-34.66-31.602-54.804.057-20.143 14.279-28.314 31.809-18.192z" opacity="1" data-original="#f3ae00"></path><path fill="#d7daff" d="m260.346 323.077-156.661-90.448-10.351 5.976 156.661 90.448z" opacity="1" data-original="#d7daff"></path><path fill="#888abf" d="M260.346 383.563v-60.472l-10.351 5.977v60.471z" opacity="1" data-original="#888abf"></path><path fill="#aeb2f4" d="M249.995 329.068 93.334 238.619v60.472l156.661 90.448z" opacity="1" data-original="#aeb2f4" class=""></path><path fill="#6fd450" d="M250 389.538 25 259.635v14.689l225 129.904z" opacity="1" data-original="#6fd450"></path><path fill="#66b94b" d="m250 389.538 225-129.903v14.689L250 404.228z" opacity="1" data-original="#66b94b"></path><path fill="#69c3fa" d="m302.704 297.961-28.005-16.169 85.154-49.163 28.005 16.168z" opacity="1" data-original="#69c3fa" class=""></path><path fill="#419ae8" d="m302.712 297.963-28.005-16.168v49.206l28.005 16.169z" opacity="1" data-original="#419ae8"></path><path fill="#3376bf" d="m387.869 248.798-85.157 49.165v49.207l85.157-49.165z" opacity="1" data-original="#3376bf" class=""></path><path fill="#5d7280" d="m89.466 319.198 59.368-34.501c4.462-2.593 10.637-2.23 17.46 1.709l-59.368 34.501c-6.823-3.939-12.998-4.302-17.46-1.709z" opacity="1" data-original="#5d7280"></path><path fill="#5d7280" d="m183.637 344.659-59.368 34.501c4.418-2.567 7.159-8.024 7.181-15.776.045-15.604-10.945-34.637-24.524-42.477l59.368-34.501c13.579 7.84 24.568 26.874 24.524 42.477-.023 7.752-2.764 13.209-7.181 15.776z" opacity="1" data-original="#5d7280"></path><path fill="#3b4951" d="M106.926 320.907c13.579 7.84 24.568 26.873 24.524 42.477s-11.105 21.908-24.684 14.068c-13.58-7.84-24.524-26.848-24.48-42.452s11.06-21.934 24.64-14.093z" opacity="1" data-original="#3b4951"></path><path fill="#2c353b" d="M106.898 334.527c7.038 4.063 12.733 13.928 12.71 22.015-.023 8.088-5.756 11.354-12.793 7.291-7.038-4.063-12.71-13.915-12.687-22.002.022-8.087 5.731-11.367 12.77-7.304z" opacity="1" data-original="#2c353b"></path></g></svg>