<svg xmlns="http://www.w3.org/2000/svg" version="1.1" xmlns:xlink="http://www.w3.org/1999/xlink" width="512" height="512" x="0" y="0" viewBox="0 0 512 512" style="enable-background:new 0 0 512 512" xml:space="preserve" class=""><g><path d="M474.788 40.687H140.604a7.954 7.954 0 0 1-7.954-7.954V15.454a7.954 7.954 0 0 1 7.954-7.954h334.184a7.954 7.954 0 0 1 7.954 7.954v17.279a7.954 7.954 0 0 1-7.954 7.954z" style="" fill="#6c5e69" data-original="#6c5e69" class=""></path><path d="M474.788 7.5h-25.261a7.954 7.954 0 0 1 7.954 7.954v17.279a7.954 7.954 0 0 1-7.954 7.954h25.261a7.954 7.954 0 0 0 7.954-7.954V15.454a7.954 7.954 0 0 0-7.954-7.954z" style="" fill="#574d56" data-original="#574d56"></path><path d="M474.788 504.5H140.604a7.954 7.954 0 0 1-7.954-7.954v-17.279a7.954 7.954 0 0 1 7.954-7.954h334.184a7.954 7.954 0 0 1 7.954 7.954v17.279a7.954 7.954 0 0 1-7.954 7.954z" style="" fill="#6c5e69" data-original="#6c5e69" class=""></path><path d="M474.788 471.313h-25.261a7.954 7.954 0 0 1 7.954 7.954v17.279a7.954 7.954 0 0 1-7.954 7.954h25.261a7.954 7.954 0 0 0 7.954-7.954v-17.279a7.954 7.954 0 0 0-7.954-7.954z" style="" fill="#574d56" data-original="#574d56"></path><path d="M178.556 40.687h258.28v430.626h-258.28z" style="" fill="#ffd3a3" data-original="#ffd3a3"></path><path d="M178.556 63.145h258.28v385.709h-258.28z" style="" fill="#ffe6c2" data-original="#ffe6c2" class=""></path><path d="M178.556 40.687h258.28v430.626h-258.28zM208.134 504.5h266.654a7.954 7.954 0 0 0 7.954-7.954v-17.279a7.954 7.954 0 0 0-7.954-7.954H140.604a7.954 7.954 0 0 0-7.954 7.954v17.279a7.954 7.954 0 0 0 7.954 7.954h38.529" style="stroke-width:15;stroke-linecap:round;stroke-linejoin:round;stroke-miterlimit:10;" fill="none" stroke="#000000" stroke-width="15" stroke-linecap="round" stroke-linejoin="round" stroke-miterlimit="10" data-original="#000000" class=""></path><path d="M168.588 7.5h-27.984a7.954 7.954 0 0 0-7.954 7.954v17.279a7.954 7.954 0 0 0 7.954 7.954h334.184a7.954 7.954 0 0 0 7.954-7.954V15.454a7.954 7.954 0 0 0-7.954-7.954h-277.2" style="stroke-width:15;stroke-linecap:round;stroke-linejoin:round;stroke-miterlimit:10;" fill="none" stroke="#000000" stroke-width="15" stroke-linecap="round" stroke-linejoin="round" stroke-miterlimit="10" data-original="#000000" class=""></path><path d="M452.418 117.331H162.975c-7.575 0-13.717-6.141-13.717-13.717 0-7.575 6.141-13.717 13.717-13.717h289.443c7.576 0 13.717 6.141 13.717 13.717-.001 7.576-6.142 13.717-13.717 13.717z" style="" fill="#d07d62" data-original="#d07d62" class=""></path><path d="M452.418 144.764H162.975c-7.575 0-13.717-6.141-13.717-13.717 0-7.576 6.141-13.717 13.717-13.717h289.443c7.576 0 13.717 6.141 13.717 13.717-.001 7.576-6.142 13.717-13.717 13.717z" style="" fill="#be6a4f" data-original="#be6a4f" class=""></path><path d="M452.418 172.198H162.975c-7.575 0-13.717-6.141-13.717-13.717 0-7.576 6.141-13.717 13.717-13.717h289.443c7.576 0 13.717 6.141 13.717 13.717-.001 7.576-6.142 13.717-13.717 13.717z" style="" fill="#d07d62" data-original="#d07d62" class=""></path><path d="M452.418 199.631H162.975c-7.575 0-13.717-6.141-13.717-13.717 0-7.576 6.141-13.717 13.717-13.717h289.443c7.576 0 13.717 6.141 13.717 13.717-.001 7.576-6.142 13.717-13.717 13.717z" style="" fill="#be6a4f" data-original="#be6a4f" class=""></path><path d="M452.418 227.064H162.975c-7.575 0-13.717-6.141-13.717-13.717 0-7.576 6.141-13.717 13.717-13.717h289.443c7.576 0 13.717 6.141 13.717 13.717-.001 7.576-6.142 13.717-13.717 13.717z" style="" fill="#d07d62" data-original="#d07d62" class=""></path><path d="M452.418 254.498H162.975c-7.575 0-13.717-6.141-13.717-13.717 0-7.575 6.141-13.717 13.717-13.717h289.443c7.576 0 13.717 6.141 13.717 13.717-.001 7.576-6.142 13.717-13.717 13.717z" style="" fill="#be6a4f" data-original="#be6a4f" class=""></path><path d="M452.418 281.931H162.975c-7.575 0-13.717-6.141-13.717-13.717 0-7.576 6.141-13.717 13.717-13.717h289.443c7.576 0 13.717 6.141 13.717 13.717-.001 7.576-6.142 13.717-13.717 13.717z" style="" fill="#d07d62" data-original="#d07d62" class=""></path><path d="M452.418 309.364H162.975c-7.575 0-13.717-6.141-13.717-13.717 0-7.576 6.141-13.717 13.717-13.717h289.443c7.576 0 13.717 6.141 13.717 13.717-.001 7.576-6.142 13.717-13.717 13.717z" style="" fill="#be6a4f" data-original="#be6a4f" class=""></path><path d="M452.418 336.798H162.975c-7.575 0-13.717-6.141-13.717-13.717 0-7.576 6.141-13.717 13.717-13.717h289.443c7.576 0 13.717 6.141 13.717 13.717-.001 7.575-6.142 13.717-13.717 13.717z" style="" fill="#d07d62" data-original="#d07d62" class=""></path><path d="M452.418 364.231H162.975c-7.575 0-13.717-6.141-13.717-13.717 0-7.576 6.141-13.717 13.717-13.717h289.443c7.576 0 13.717 6.141 13.717 13.717-.001 7.576-6.142 13.717-13.717 13.717z" style="" fill="#be6a4f" data-original="#be6a4f" class=""></path><path d="M452.418 391.664H162.975c-7.575 0-13.717-6.141-13.717-13.717 0-7.576 6.141-13.717 13.717-13.717h289.443c7.576 0 13.717 6.141 13.717 13.717-.001 7.576-6.142 13.717-13.717 13.717z" style="" fill="#d07d62" data-original="#d07d62" class=""></path><path d="M452.418 419.098H42.975c-7.575 0-13.717-6.141-13.717-13.717 0-7.576 6.141-13.717 13.717-13.717h409.443c7.576 0 13.717 6.141 13.717 13.717-.001 7.575-6.142 13.717-13.717 13.717z" style="" fill="#be6a4f" data-original="#be6a4f" class=""></path><path d="M452.418 117.331H162.975c-7.575 0-13.717-6.141-13.717-13.717v0c0-7.575 6.141-13.717 13.717-13.717h289.443c7.576 0 13.717 6.141 13.717 13.717v0c-.001 7.576-6.142 13.717-13.717 13.717z" style="stroke-width:15;stroke-linecap:round;stroke-linejoin:round;stroke-miterlimit:10;" fill="none" stroke="#000000" stroke-width="15" stroke-linecap="round" stroke-linejoin="round" stroke-miterlimit="10" data-original="#000000" class=""></path><path d="M452.418 144.764H162.975c-7.575 0-13.717-6.141-13.717-13.717v0c0-7.576 6.141-13.717 13.717-13.717h289.443c7.576 0 13.717 6.141 13.717 13.717v0c-.001 7.576-6.142 13.717-13.717 13.717z" style="stroke-width:15;stroke-linecap:round;stroke-linejoin:round;stroke-miterlimit:10;" fill="none" stroke="#000000" stroke-width="15" stroke-linecap="round" stroke-linejoin="round" stroke-miterlimit="10" data-original="#000000" class=""></path><path d="M452.418 172.198H162.975c-7.575 0-13.717-6.141-13.717-13.717v0c0-7.576 6.141-13.717 13.717-13.717h289.443c7.576 0 13.717 6.141 13.717 13.717v0c-.001 7.576-6.142 13.717-13.717 13.717z" style="stroke-width:15;stroke-linecap:round;stroke-linejoin:round;stroke-miterlimit:10;" fill="none" stroke="#000000" stroke-width="15" stroke-linecap="round" stroke-linejoin="round" stroke-miterlimit="10" data-original="#000000" class=""></path><path d="M452.418 199.631H162.975c-7.575 0-13.717-6.141-13.717-13.717v0c0-7.576 6.141-13.717 13.717-13.717h289.443c7.576 0 13.717 6.141 13.717 13.717v0c-.001 7.576-6.142 13.717-13.717 13.717z" style="stroke-width:15;stroke-linecap:round;stroke-linejoin:round;stroke-miterlimit:10;" fill="none" stroke="#000000" stroke-width="15" stroke-linecap="round" stroke-linejoin="round" stroke-miterlimit="10" data-original="#000000" class=""></path><path d="M452.418 227.064H162.975c-7.575 0-13.717-6.141-13.717-13.717v0c0-7.576 6.141-13.717 13.717-13.717h289.443c7.576 0 13.717 6.141 13.717 13.717v0c-.001 7.576-6.142 13.717-13.717 13.717z" style="stroke-width:15;stroke-linecap:round;stroke-linejoin:round;stroke-miterlimit:10;" fill="none" stroke="#000000" stroke-width="15" stroke-linecap="round" stroke-linejoin="round" stroke-miterlimit="10" data-original="#000000" class=""></path><path d="M452.418 254.498H162.975c-7.575 0-13.717-6.141-13.717-13.717v0c0-7.575 6.141-13.717 13.717-13.717h289.443c7.576 0 13.717 6.141 13.717 13.717v0c-.001 7.576-6.142 13.717-13.717 13.717z" style="stroke-width:15;stroke-linecap:round;stroke-linejoin:round;stroke-miterlimit:10;" fill="none" stroke="#000000" stroke-width="15" stroke-linecap="round" stroke-linejoin="round" stroke-miterlimit="10" data-original="#000000" class=""></path><path d="M452.418 281.931H162.975c-7.575 0-13.717-6.141-13.717-13.717v0c0-7.576 6.141-13.717 13.717-13.717h289.443c7.576 0 13.717 6.141 13.717 13.717v0c-.001 7.576-6.142 13.717-13.717 13.717z" style="stroke-width:15;stroke-linecap:round;stroke-linejoin:round;stroke-miterlimit:10;" fill="none" stroke="#000000" stroke-width="15" stroke-linecap="round" stroke-linejoin="round" stroke-miterlimit="10" data-original="#000000" class=""></path><path d="M452.418 309.364H162.975c-7.575 0-13.717-6.141-13.717-13.717v0c0-7.576 6.141-13.717 13.717-13.717h289.443c7.576 0 13.717 6.141 13.717 13.717v0c-.001 7.576-6.142 13.717-13.717 13.717zM452.418 336.798H162.975c-7.575 0-13.717-6.141-13.717-13.717v0c0-7.576 6.141-13.717 13.717-13.717h289.443c7.576 0 13.717 6.141 13.717 13.717v0c-.001 7.575-6.142 13.717-13.717 13.717z" style="stroke-width:15;stroke-linecap:round;stroke-linejoin:round;stroke-miterlimit:10;" fill="none" stroke="#000000" stroke-width="15" stroke-linecap="round" stroke-linejoin="round" stroke-miterlimit="10" data-original="#000000" class=""></path><path d="M452.418 364.231H162.975c-7.575 0-13.717-6.141-13.717-13.717v0c0-7.576 6.141-13.717 13.717-13.717h289.443c7.576 0 13.717 6.141 13.717 13.717v0c-.001 7.576-6.142 13.717-13.717 13.717z" style="stroke-width:15;stroke-linecap:round;stroke-linejoin:round;stroke-miterlimit:10;" fill="none" stroke="#000000" stroke-width="15" stroke-linecap="round" stroke-linejoin="round" stroke-miterlimit="10" data-original="#000000" class=""></path><path d="M452.418 391.664H162.975c-7.575 0-13.717-6.141-13.717-13.717v0c0-7.576 6.141-13.717 13.717-13.717h289.443c7.576 0 13.717 6.141 13.717 13.717v0c-.001 7.576-6.142 13.717-13.717 13.717zM397.448 419.098h54.97c7.576 0 13.717-6.141 13.717-13.717v0c0-7.575-6.141-13.717-13.717-13.717H42.975c-7.575 0-13.717 6.141-13.717 13.717v0c0 7.576 6.141 13.717 13.717 13.717h325.473" style="stroke-width:15;stroke-linecap:round;stroke-linejoin:round;stroke-miterlimit:10;" fill="none" stroke="#000000" stroke-width="15" stroke-linecap="round" stroke-linejoin="round" stroke-miterlimit="10" data-original="#000000" class=""></path></g></svg>