<svg xmlns="http://www.w3.org/2000/svg" version="1.1" xmlns:xlink="http://www.w3.org/1999/xlink" xmlns:svgjs="http://svgjs.com/svgjs" width="512" height="512" x="0" y="0" viewBox="0 0 64 64" style="enable-background:new 0 0 512 512" xml:space="preserve" class=""><g><rect width="58" height="58" x="3" y="3" fill="#e5e4e3" rx="2" data-original="#e5e4e3" class=""></rect><path fill="#484c4f" d="M7 9h6v21H7z" data-original="#484c4f"></path><path fill="#b7b6b7" d="M7 21h6v9H7z" data-original="#b7b6b7"></path><path fill="#e2ba4b" d="M7 13h6v4H7z" data-original="#e2ba4b"></path><path fill="#fad55c" d="M7 17h6v4H7z" data-original="#fad55c"></path><path fill="#484c4f" d="M13 55H7V34h6z" data-original="#484c4f"></path><path fill="#b7b6b7" d="M13 43H7v-9h6z" data-original="#b7b6b7"></path><path fill="#e2ba4b" d="M13 51H7v-4h6z" data-original="#e2ba4b"></path><path fill="#fad55c" d="M13 47H7v-4h6z" data-original="#fad55c"></path><path fill="#4a8cdd" d="M16 9h6v46h-6zM25 9h6v46h-6z" data-original="#4a8cdd" class=""></path><path fill="#356baa" d="M49 44h8v6h-8z" data-original="#356baa"></path><path fill="#484c4f" d="M49 53h8v4h-8z" data-original="#484c4f"></path><path fill="#356baa" d="M35 44h8v6h-8z" data-original="#356baa"></path><path fill="#484c4f" d="M35 53h8v4h-8z" data-original="#484c4f"></path><circle cx="39" cy="37" r="4" fill="#fad55c" data-original="#fad55c"></circle><circle cx="53" cy="37" r="4" fill="#fad55c" data-original="#fad55c"></circle><path fill="#6f777f" d="M35 7h22v22H35z" data-original="#6f777f" class=""></path><path fill="#ef5237" d="M41 13h10v10H41z" data-original="#ef5237" class=""></path><path d="M59 2H5a3 3 0 0 0-3 3v54a3 3 0 0 0 3 3h54a3 3 0 0 0 3-3V5a3 3 0 0 0-3-3zm1 57a1 1 0 0 1-1 1H5a1 1 0 0 1-1-1V5a1 1 0 0 1 1-1h54a1 1 0 0 1 1 1z" fill="#000000" data-original="#000000" class=""></path><path d="M55 15v-2h-3a1 1 0 0 0-1-1V9h-2v3h-2V9h-2v3h-2V9h-2v3a1 1 0 0 0-1 1h-3v2h3v2h-3v2h3v2h-3v2h3a1 1 0 0 0 1 1v3h2v-3h2v3h2v-3h2v3h2v-3a1 1 0 0 0 1-1h3v-2h-3v-2h3v-2h-3v-2zm-5 4h-3v2h3v1h-8v-5h3v-2h-3v-1h8z" fill="#000000" data-original="#000000" class=""></path><path d="M57 6H35a1 1 0 0 0-1 1v22a1 1 0 0 0 1 1h22a1 1 0 0 0 1-1v-8h-2v7H36V8h20v7h2V7a1 1 0 0 0-1-1z" fill="#000000" data-original="#000000" class=""></path><path d="M43 19h2v2h-2zM47 15h2v2h-2zM13 8h-2V6H9v2H7a1 1 0 0 0-1 1v21a1 1 0 0 0 1 1h6a1 1 0 0 0 1-1V9a1 1 0 0 0-1-1zm-1 2v2H8v-2zm-4 6v-2h4v2zm4 2v2H8v-2zM8 29v-7h4v7zM13 33H7a1 1 0 0 0-1 1v21a1 1 0 0 0 1 1h2v2h2v-2h2a1 1 0 0 0 1-1V34a1 1 0 0 0-1-1zm-1 2v7H8v-7zM8 46v-2h4v2zm4 2v2H8v-2zm-4 6v-2h4v2zM22 8h-2V6h-2v2h-2a1 1 0 0 0-1 1v46a1 1 0 0 0 1 1h2v2h2v-2h2a1 1 0 0 0 1-1V9a1 1 0 0 0-1-1zm-1 46h-4V10h4zM31 8h-2V6h-2v2h-2a1 1 0 0 0-1 1v46a1 1 0 0 0 1 1h2v2h2v-2h2a1 1 0 0 0 1-1V9a1 1 0 0 0-1-1zm-1 46h-4V10h4z" fill="#000000" data-original="#000000" class=""></path><path d="M18 34h2v2h-2zM18 38h2v2h-2zM18 42h2v2h-2zM18 46h2v2h-2zM18 50h2v2h-2zM27 12h2v2h-2zM27 16h2v2h-2zM27 20h2v2h-2zM27 24h2v2h-2zM27 28h2v2h-2zM39 32a5 5 0 1 0 5 5 5 5 0 0 0-5-5zm0 8a3 3 0 1 1 3-3 3 3 0 0 1-3 3zM53 32a5 5 0 1 0 5 5 5 5 0 0 0-5-5zm0 8a3 3 0 1 1 3-3 3 3 0 0 1-3 3zM43 43h-8a1 1 0 0 0-1 1v6a1 1 0 0 0 1 1h8a1 1 0 0 0 1-1v-6a1 1 0 0 0-1-1zm-1 6h-6v-4h6zM57 43h-8a1 1 0 0 0-1 1v6a1 1 0 0 0 1 1h8a1 1 0 0 0 1-1v-6a1 1 0 0 0-1-1zm-1 6h-6v-4h6zM43 52h-8a1 1 0 0 0-1 1v4a1 1 0 0 0 1 1h8a1 1 0 0 0 1-1v-4a1 1 0 0 0-1-1zm-1 4h-6v-2h6zM57 52h-8a1 1 0 0 0-1 1v4a1 1 0 0 0 1 1h8a1 1 0 0 0 1-1v-4a1 1 0 0 0-1-1zm-1 4h-6v-2h6z" fill="#000000" data-original="#000000" class=""></path><path d="M38 36h2v2h-2zM52 36h2v2h-2zM56 17h2v2h-2zM45 49h2v2h-2zM45 43h2v2h-2zM45 56h2v2h-2zM45 52h2v2h-2zM45 38h2v2h-2zM45 34h2v2h-2z" fill="#000000" data-original="#000000" class=""></path></g></svg>