<svg xmlns="http://www.w3.org/2000/svg" version="1.1" xmlns:xlink="http://www.w3.org/1999/xlink" xmlns:svgjs="http://svgjs.com/svgjs" width="512" height="512" x="0" y="0" viewBox="0 0 265 265" style="enable-background:new 0 0 512 512" xml:space="preserve" class=""><g><path fill="#57667c" d="m13.297 200.48 138.047-80.225 6.658 3.844-138.047 80.224z" data-original="#57667c"></path><path fill="#3b475a" d="m24.089 182.38 138.047-80.224-.082 28.96-138.047 80.225z" data-original="#3b475a"></path><path fill="#4c5c75" d="m13.366 176.19 138.047-80.224 10.723 6.19L24.089 182.38z" data-original="#4c5c75" class=""></path><path fill="#1d2943" d="m24.089 182.38-.082 28.96-10.723-6.19.013-4.67 6.658 3.843.056-19.618-6.658-3.844.013-4.671z" data-original="#1d2943" class=""></path><path fill="#111d33" d="m240.25 142.183-.028 9.906-142.501 83.03.028-9.905z" data-original="#111d33"></path><path fill="#1d2943" d="m97.749 225.214-.028 9.906-73.66-42.834.028-9.906z" data-original="#1d2943" class=""></path><path fill="#4c5c75" d="M236.19 144.765 97.75 225.215l-73.66-42.835 138.195-80.272z" data-original="#4c5c75" class=""></path><path fill="#ffffff" d="M223.097 144.784 97.75 217.624l-60.601-35.24 125.146-72.694z" data-original="#ffffff"></path><path fill="#57667c" d="m101.8 232.232 138.048-80.224-.056 19.619-138.047 80.224z" data-original="#57667c"></path><path fill="#4c5c75" d="m97.749 225.214 138.047-80.224 10.723 6.191-138.047 80.224z" data-original="#4c5c75" class=""></path><path fill="#111d33" d="m239.792 171.626-138.047 80.225.056-19.619 6.657 3.844.014-4.671-10.723-6.19-.082 28.96 10.723 6.19 138.047-80.224.013-4.67z" data-original="#111d33"></path><path fill="#4c5c75" d="m101.745 251.85 138.047-80.223 6.658 3.843-138.047 80.224z" data-original="#4c5c75" class=""></path><path fill="#111d33" d="M108.403 255.694 246.45 175.47l-.013 4.671-138.047 80.224z" data-original="#111d33"></path><path fill="#111d33" d="m246.522 151.185-.02 4.67-138.04 80.22-6.66-3.84-.06 19.62 6.66 3.84-.01 4.67-10.73-6.19.09-28.96 10.72 6.19z" data-original="#111d33"></path><path fill="#111d33" d="m108.472 231.405 138.047-80.224-.014 4.671-138.046 80.224z" data-original="#111d33"></path><path fill="#1d2943" d="m108.472 231.405-.013 4.671-6.658-3.844-.056 19.619 6.658 3.843-.013 4.671-10.723-6.19.082-28.96z" data-original="#1d2943" class=""></path><path fill="#111d33" d="m251.712 43.775-.29 104.87-12.82 7.45-67.79-39.14.29-104.87 12.82-7.45z" data-original="#111d33"></path><path fill="#111d33" d="m251.712 43.775-.29 104.87-12.82 7.45.3-104.87-67.8-39.14 12.82-7.45z" data-original="#111d33"></path><path fill="#111d33" d="m238.9 51.223 12.816-7.448-.297 104.872-12.817 7.448z" data-original="#111d33"></path><path fill="#4c5c75" d="m171.106 12.083 12.816-7.448 67.794 39.14-12.817 7.448z" data-original="#4c5c75" class=""></path><path fill="#1d2943" d="m238.9 51.223-.298 104.872-67.793-39.14.297-104.872z" data-original="#1d2943" class=""></path><path fill="#111d33" d="m235.792 56.285-.81 91.13-8.5.41-61.08-35.27.2-83.81 9.11-7.73z" data-original="#111d33"></path><path fill="#111d33" d="m226.682 64.008 9.114-7.725-.81 91.129-8.503.412z" data-original="#111d33"></path><path fill="#4c5c75" d="m165.597 28.74 9.115-7.724 61.084 35.267-9.114 7.725z" data-original="#4c5c75" class=""></path><path fill="#293a56" d="m226.682 64.008-.2 83.816-61.084-35.267.2-83.816z" data-original="#293a56" class=""></path><path fill="#4c5c75" d="M168.835 72.889c-.068 29.164 32.124 61.297 48.404 47.511 3.733-3.205 5.965-8.723 6.005-16.107.041-17.244-12.09-38.302-27.143-46.944-6.492-3.773-12.456-4.585-17.163-2.88-6.126 2.15-10.062 8.6-10.103 18.42z" data-original="#4c5c75" class=""></path><path fill="#ffffff" d="M182.458 61.029c2.711 1.565 8.417 7.167 11.522 14.476.328.757.621 1.211 1.016 1.44.22.126.47.183.776.184-1.18-6.383-3.985-12.427-7.99-18.376l.685-.194c4.252.75 7.997 2.777 11.363 5.479 2.39 1.97 4.18 4.575 4.94 7.767 1.268 5.451 1.17 10.113-.807 13.395l.42 2.308c3.77-1.854 5.664-5.873 6.535-11.17l.767.934c2.81 4.67 5.106 9.436 6.375 14.495.762 2.995.413 5.448-1.216 6.572-2.914 1.955-6.508 2.24-10.865-.08-.854-.493-1.282-.346-1.371.782 1.885 1.698 3.758 3.063 5.628 4.143 2.958 1.708 5.91 2.701 8.895 3.16l-.003 1.277c-1.177 5.544-4.815 11.347-9.766 8.49-2.706-1.563-8.35-7.262-11.35-14.39l-1.791-1.624c1.18 6.383 4.07 12.476 7.904 18.327l-.77.243c-4.205-.854-7.913-2.81-11.278-5.528-2.39-1.97-4.179-4.772-4.854-7.816-1.269-5.353-1.17-10.015.722-13.248.43-.735.431-1.422-.677-2.849-1.288 1.714-2.917 2.937-3.949 4.799-1.032 1.96-1.638 4.363-2.5 6.618l-.426-.64c-2.895-4.62-5.192-9.486-6.46-14.445-.762-3.094-.413-5.547 1.216-6.671 2.914-1.955 6.508-2.24 10.95.03.855.396 1.198.298 1.372-.977-2.082-1.442-4.051-2.883-6-4.009a24.06 24.06 0 0 0-1.344-.723c-2.477-1.233-4.786-1.78-7.094-2.522l-.084-.344.002-.687c.695-3.826 2.242-6.57 4.558-8.576 1.341-1.07 3.046-1.15 4.95-.05zm13.442 36.23.157.09c4.185 2.416 7.613.462 7.627-4.445-.157-4.908-3.563-10.806-7.662-13.173-4.272-2.27-7.614-.267-7.628 4.64.071 4.702 3.311 10.466 7.506 12.888" data-original="#ffffff"></path><path fill="#ffffff" d="M196.256 84.268c-2.135-1.232-3.822-.271-3.83 2.182-.006 2.379 1.67 5.283 3.805 6.515 2.07 1.195 3.758.308 3.83-2.108.006-2.453-1.67-5.356-3.805-6.589z" data-original="#ffffff"></path><path fill="#c9cee2" d="m134.242 207.155-26.241-15.25-.026-7.284 26.241 15.25zM114.574 218.51l-61.02-35.46-.032-9.813 61.019 35.46z" data-original="#c9cee2"></path><path fill="#e3e7f0" d="m114.54 208.697-61.018-35.46 23.339-13.475 59.55 36.309z" data-original="#e3e7f0"></path><path fill="#9ea9c9" d="m136.41 196.07.033 9.814-2.2 1.27-.027-7.283-17.467 10.085.026 7.283-2.201 1.271-.033-9.813z" data-original="#9ea9c9"></path><path fill="#c9cee2" d="m194.52 172.507-26.242-15.25-.026-7.283 26.241 15.25zM174.851 183.863l-61.02-35.46-.032-9.814 61.019 35.46z" data-original="#c9cee2"></path><path fill="#e3e7f0" d="m174.818 174.05-61.02-35.46 23.34-13.476 59.55 36.31z" data-original="#e3e7f0"></path><path fill="#9ea9c9" d="m196.687 161.423.033 9.813-2.2 1.271-.027-7.283-17.467 10.084.026 7.284-2.201 1.27-.033-9.812z" data-original="#9ea9c9"></path><path fill="#8fabfe" d="m175.493 151.48 29.604-17.204a15.4 15.4 0 0 1-.45.27l-29.605 17.205a15.46 15.46 0 0 0 .451-.27z" data-original="#8fabfe" class=""></path><path fill="#566df9" d="m219.202 93.235-.14 46.74-29.6 17.2-9.03-5.22c-1.9-1.09-3.71-1.24-5.02-.43-5.93 3.68-14.27 3.29-23.48-2.04-9.22-5.32-17.53-14.54-23.43-25.04-1.3-2.32-3.1-4.26-5-5.35l-9.03-5.22.13-46.73 29.61-17.2 9.03 5.21c1.82 1.06 3.57 1.23 4.87.51l.52-.3c5.9-3.43 14.09-2.95 23.11 2.27 9.22 5.32 17.53 14.53 23.42 25.03 1.3 2.33 3.11 4.26 5 5.36z" data-original="#566df9"></path><path fill="#748bfd" d="m153.244 55.158-9.034-5.216-29.604 17.204 9.034 5.216c1.857 1.072 3.632 1.235 4.94.475l29.604-17.204c-1.308.76-3.083.597-4.94-.475z" data-original="#748bfd"></path><path fill="#8fabfe" d="M205.161 82.667c-5.893-10.5-14.199-19.715-23.417-25.037-9.027-5.211-17.209-5.696-23.115-2.264L129.026 72.57c16.002-9.3 37.358 10.956 46.532 27.3 1.304 2.324 3.109 4.261 5 5.354l29.604-17.204c-1.892-1.092-3.696-3.03-5-5.353zM189.595 110.44l29.603-17.203-.132 46.733-29.604 17.204z" data-original="#8fabfe" class=""></path><path fill="#748bfd" d="m180.559 105.224 29.604-17.204 9.035 5.217-29.603 17.204z" data-original="#748bfd"></path><path fill="#566df9" d="M175.558 99.87c1.304 2.324 3.109 4.261 5 5.354l9.037 5.217-.133 46.733-9.034-5.216c-1.892-1.092-3.702-1.244-5.015-.43-5.934 3.674-14.266 3.283-23.485-2.04-9.218-5.322-17.53-14.54-23.422-25.042-1.305-2.325-3.108-4.259-5-5.352l-9.033-5.214.133-46.734 9.034 5.216c1.892 1.092 3.7 1.24 5.015.43 15.917-9.855 37.599 10.503 46.903 27.079z" data-original="#566df9"></path><path fill="#c9cee2" d="m36.36 119.656 26.275-15.269-.09 31.397-26.273 15.27z" data-original="#c9cee2"></path><path fill="#748bfd" d="M180.822 129.715c-.02 9.25-3.29 15.76-8.56 18.82l-92.46 53.73c.1-.06.21-.12.31-.19-5.35 3.31-12.87 2.95-21.19-1.85-16.2-9.36-29.3-32.04-29.25-50.67.03-9.34 3.36-15.89 8.73-18.91-.06.03-.11.06-.17.09l.39-.22 92.07-53.51c5.34-3.1 12.73-2.66 20.88 2.05 16.21 9.35 29.3 32.04 29.25 50.66z" data-original="#748bfd"></path><path fill="#8fabfe" d="M151.574 79.052c-8.155-4.709-15.545-5.146-20.88-2.045l-92.458 53.73c5.336-3.1 12.725-2.664 20.88 2.045 16.207 9.357 29.303 32.04 29.25 50.662-.026 9.252-3.292 15.761-8.56 18.822l92.457-53.73c5.268-3.061 8.534-9.57 8.56-18.822.053-18.622-13.043-41.306-29.25-50.662z" data-original="#8fabfe" class=""></path><ellipse cx="59.021" cy="166.502" fill="#748bfd" rx="23.96" ry="41.366" transform="rotate(-30.12 59.167 166.645)" data-original="#748bfd"></ellipse><path fill="#8fabfe" d="M163.27 88.597c-.183.09-.37.19-.557.3l-9.97 5.757-3.762-6.516 8.56-4.943a56.8 56.8 0 0 1 5.728 5.402z" data-original="#8fabfe" class=""></path><path fill="#1d2943" d="M47.024 170.585c-1.762-3.556-2.915-7.336-3.235-10.921l-6.333-3.657c.344 5.606 2.2 11.595 5.07 17.137zM57.269 183.015c-2.954-2.083-5.653-4.983-7.848-8.283l-4.499 2.558c3.37 5.267 7.633 9.876 12.326 13.003zM68.621 158.278l4.495-2.566c-3.366-5.264-7.633-9.875-12.33-13l-.02 7.273c2.96 2.088 5.656 4.986 7.855 8.293zM74.237 177.243c-.338 3.205-1.512 5.642-3.282 7.159l4.465 7.734c2.893-2.215 4.776-6.046 5.155-11.234zM73.008 193.506l-4.465-7.734c-2.21.756-4.913.537-7.877-.795l-.02 7.278c4.699 2.294 8.978 2.618 12.362 1.25zM71.018 162.42c1.755 3.551 2.911 7.334 3.23 10.919l6.338 3.658c-.348-5.607-2.203-11.596-5.074-17.138zM43.8 155.76c.339-3.206 1.51-5.645 3.287-7.157l-4.47-7.736c-2.892 2.214-4.775 6.045-5.15 11.236zM45.03 139.497l4.469 7.74c2.207-.762 4.913-.542 7.869.787l.02-7.274c-4.695-2.297-8.97-2.618-12.358-1.253z" data-original="#1d2943" class=""></path><path fill="#b0b8cf" d="m103.842 100.565-.09 25.65-31.05 18.05v-3.63l-12.78-7.38-1.58-.91-21.98-12.69-.03 12.42c-3.74 3.1-6.14 8.28-6.58 15.21l-7.82-4.51.18-53.42 31.06-18.05z" data-original="#b0b8cf"></path><path fill="#c9cee2" d="m72.79 118.612 31.055-18.047-.089 25.654-31.055 18.047z" data-original="#c9cee2"></path><path fill="#e3e7f0" d="m22.114 89.354 31.055-18.047 50.676 29.258-31.055 18.047z" data-original="#e3e7f0"></path><path fill="#b0b8cf" d="m72.789 118.612-.09 22.025-36.337-20.98-.035 12.417c-3.738 3.096-6.134 8.283-6.574 15.214l-7.817-4.512.177-53.421z" data-original="#b0b8cf"></path><path fill="#b0b8cf" d="M72.699 140.636v3.822c-2.864-3.657-7.024-7.136-11.716-10.542z" data-original="#b0b8cf"></path><path fill="#9ea9c9" d="m118.718 190.35 4.11-2.388.004-3.748-4.109 2.388z" data-original="#9ea9c9"></path><path fill="#f8f9fe" d="m118.723 186.602 4.11-2.388-9.144-16.947-4.11 2.388z" data-original="#f8f9fe"></path><path fill="#c9cee2" d="m109.58 169.655-.038 13.418 9.176 5.299.005-1.77z" data-original="#c9cee2"></path><path fill="#892e3f" d="m96.16 190.744.006 1.762 7.655 4.45-.005-1.763z" data-original="#892e3f"></path><path fill="#9ea9c9" d="m103.816 195.193.005 3.741 14.945-8.628-.006-3.741z" data-original="#9ea9c9"></path><path fill="#e3e7f0" d="m94.635 189.858 9.18 5.335 14.945-8.628-9.18-5.336z" data-original="#e3e7f0"></path><path fill="#9ea9c9" d="m100.816 200.686 4.109-2.388.005-3.749-4.11 2.388z" data-original="#9ea9c9"></path><path fill="#ffffff" d="m100.82 196.937 4.11-2.388-9.258-17.017-4.11 2.388z" data-original="#ffffff"></path><path fill="#c9cee2" d="m91.563 179.92.076 15.468 9.177 5.298.005-3.749z" data-original="#c9cee2"></path><path fill="#9ea9c9" d="m178.669 155.514 4.108-2.388.005-3.748-4.109 2.387z" data-original="#9ea9c9"></path><path fill="#ffffff" d="m178.673 151.765 4.11-2.387-9.144-16.947-4.11 2.387z" data-original="#ffffff"></path><path fill="#c9cee2" d="m169.53 134.818-.038 13.42 9.177 5.298.004-1.77z" data-original="#c9cee2"></path><path fill="#892e3f" d="m156.11 155.908.006 1.762 7.655 4.45-.005-1.763z" data-original="#892e3f"></path><path fill="#9ea9c9" d="m163.766 160.357.005 3.74 14.945-8.627-.006-3.741z" data-original="#9ea9c9"></path><path fill="#e3e7f0" d="m154.585 155.022 9.18 5.335 14.945-8.628-9.18-5.336z" data-original="#e3e7f0"></path><path fill="#9ea9c9" d="m160.736 165.867 4.139-2.405.005-3.749-4.11 2.388z" data-original="#9ea9c9"></path><path fill="#ffffff" d="m160.77 162.101 4.11-2.388-9.258-17.017-4.11 2.388z" data-original="#ffffff"></path><path fill="#c9cee2" d="m151.513 145.084.076 15.467 9.147 5.316.035-3.766z" data-original="#c9cee2"></path><path fill="#1d2943" d="M176.126 108.575a71.248 71.248 0 0 0-7.542-13.438l-.004-2.928c-.005-2.05-.56-3.59-1.48-4.12-.839-.483-2.244-.291-3.83.508-.183.09-.37.19-.557.3l-9.97 5.757-3.762-6.516 8.56-4.943 1.41-.815c4.224-2.437 8.562-2.734 11.901-.814 3.325 1.913 5.24 5.784 5.252 10.62z" data-original="#1d2943" class=""></path><path fill="#aa6256" d="M160.762 95.075c-.01 2.37-.84 4.03-2.19 4.82l-20.6 11.97c.1-.06.19-.13.28-.2-1.38.99-3.39.96-5.62-.33-4.16-2.39-7.51-8.21-7.5-12.98.01-2.37.85-4.04 2.21-4.82l.01-.01h.01l20.56-11.95c1.37-.8 3.26-.69 5.35.52 4.15 2.4 7.5 8.21 7.49 12.98z" data-original="#aa6256"></path><path fill="#dba660" d="M160.762 95.073c-.008 2.37-.843 4.037-2.194 4.821l-20.592 11.967c1.35-.784 2.185-2.453 2.194-4.82.012-4.774-3.342-10.581-7.492-12.978-2.09-1.208-3.983-1.318-5.349-.525l20.593-11.967c1.365-.794 3.258-.683 5.348.524 4.15 2.397 7.504 8.208 7.492 12.978z" data-original="#dba660" class=""></path><ellipse cx="132.652" cy="102.699" fill="#bf7d5a" rx="6.138" ry="10.596" transform="rotate(-30.12 132.843 102.739)" data-original="#bf7d5a"></ellipse><path fill="#aa6256" d="M138.053 105.818c-.009 3.428-2.435 4.81-5.419 3.088-1.241-.718-2.383-1.86-3.292-3.195-1.278-1.872-2.098-4.128-2.091-6.13.01-3.427 2.436-4.81 5.418-3.089 1.52.88 2.893 2.393 3.872 4.122.94 1.662 1.517 3.523 1.512 5.204z" data-original="#aa6256"></path><path fill="#dba660" d="M138.053 105.818c-.009 3.428-2.435 4.81-5.419 3.088-1.241-.718-2.383-1.86-3.292-3.195l7.199-5.097c.94 1.662 1.517 3.523 1.512 5.204z" data-original="#dba660" class=""></path><path fill="#1d2943" d="M147.805 77.153c-2.642-1.138-5.177-1.806-7.553-2.037-.124-1.672-.65-2.907-1.454-3.368-.938-.54-2.576-.236-4.387.809l-9.969 5.757-3.762-6.515 9.97-5.758c4.223-2.44 8.561-2.736 11.9-.814 3.325 1.913 5.238 5.784 5.253 10.62z" data-original="#1d2943" class=""></path><path fill="#aa6256" d="M132.462 78.735c-.01 2.37-.84 4.04-2.2 4.82l-20.5 11.91-.09.06c.02-.01.05-.03.07-.05-1.38.84-3.3.75-5.42-.48-4.15-2.4-7.5-8.21-7.49-12.98.01-2.38.85-4.04 2.2-4.82l20.59-11.96c1.36-.8 3.26-.69 5.35.52 4.15 2.4 7.5 8.21 7.49 12.98z" data-original="#aa6256"></path><path fill="#dba660" d="M132.46 78.733c-.008 2.37-.843 4.037-2.193 4.821l-20.593 11.967c1.35-.784 2.185-2.453 2.194-4.82.012-4.774-3.342-10.581-7.492-12.978-2.09-1.208-3.983-1.318-5.348-.525L119.62 65.23c1.366-.793 3.259-.683 5.349.524 4.15 2.397 7.504 8.208 7.492 12.978z" data-original="#dba660" class=""></path><ellipse cx="104.351" cy="86.359" fill="#bf7d5a" rx="6.138" ry="10.596" transform="rotate(-30.12 104.503 86.396)" data-original="#bf7d5a"></ellipse><path fill="#aa6256" d="M109.751 89.478c-.008 3.428-2.435 4.81-5.419 3.088-1.24-.718-2.382-1.86-3.292-3.195-1.278-1.872-2.098-4.128-2.09-6.13.01-3.427 2.436-4.81 5.418-3.089 1.52.88 2.893 2.393 3.87 4.123.94 1.661 1.518 3.522 1.513 5.203z" data-original="#aa6256"></path><path fill="#dba660" d="M109.751 89.478c-.008 3.428-2.435 4.81-5.419 3.088-1.24-.718-2.382-1.86-3.292-3.195l7.199-5.096c.94 1.661 1.517 3.522 1.512 5.203z" data-original="#dba660" class=""></path></g></svg>