<svg xmlns="http://www.w3.org/2000/svg" version="1.1" xmlns:xlink="http://www.w3.org/1999/xlink" width="512" height="512" x="0" y="0" viewBox="0 0 64 64" style="enable-background:new 0 0 512 512" xml:space="preserve" class=""><g><path fill="#aab2bd" d="M58 50H6a4 4 0 0 1-4-4V6a4 4 0 0 1 4-4h52a4 4 0 0 1 4 4v40a4 4 0 0 1-4 4z" opacity="1" data-original="#aab2bd" class=""></path><circle cx="29" cy="43" r="3" fill="#fcd770" opacity="1" data-original="#fcd770"></circle><circle cx="19" cy="43" r="3" fill="#fcd770" opacity="1" data-original="#fcd770"></circle><circle cx="9" cy="43" r="3" fill="#fcd770" opacity="1" data-original="#fcd770"></circle><circle cx="32" cy="34" r="2" fill="#ff826e" opacity="1" data-original="#ff826e"></circle><circle cx="24" cy="34" r="2" fill="#ff826e" opacity="1" data-original="#ff826e"></circle><circle cx="16" cy="34" r="2" fill="#ff826e" opacity="1" data-original="#ff826e"></circle><circle cx="8" cy="34" r="2" fill="#ff826e" opacity="1" data-original="#ff826e"></circle><path fill="#f0d0b4" d="M54 43c0-.55.22-1.05.59-1.41.36-.37.86-.59 1.41-.59 1.1 0 2 .9 2 2v9c0 2.76-1.12 5.26-2.93 7.07S50.76 62 48 62c-5.52 0-10-4.48-10-10v-2.58c0-.93-.22-1.85-.63-2.69l-1.2-2.39c-.11-.22-.17-.47-.17-.72 0-.9.72-1.62 1.62-1.62 2.42 0 4.38 1.96 4.38 4.38V32c0-1.1.9-2 2-2 .55 0 1.05.22 1.41.59.37.36.59.86.59 1.41v9c0-1.1.9-2 2-2 .55 0 1.05.22 1.41.59.37.36.59.86.59 1.41v1c0-1.1.9-2 2-2 .55 0 1.05.22 1.41.59.37.36.59.86.59 1.41z" opacity="1" data-original="#f0d0b4" class=""></path><circle cx="56" cy="20" r="2" fill="#fcd770" opacity="1" data-original="#fcd770"></circle><circle cx="50" cy="12" r="2" fill="#fcd770" opacity="1" data-original="#fcd770"></circle><circle cx="44" cy="22" r="2" fill="#fcd770" opacity="1" data-original="#fcd770"></circle><path fill="#69d6f4" d="M38 7v20c0 .55-.45 1-1 1H7c-.55 0-1-.45-1-1V7c0-.55.45-1 1-1h30c.55 0 1 .45 1 1z" opacity="1" data-original="#69d6f4" class=""></path><path d="M58 1H6C3.243 1 1 3.243 1 6v40c0 2.757 2.243 5 5 5h31v.999a10.93 10.93 0 0 0 3.222 7.779A10.93 10.93 0 0 0 48 63c6.065 0 11-4.935 11-11v-1.101A5.009 5.009 0 0 0 63 46V6c0-2.757-2.243-5-5-5zm-1 51c0 4.962-4.038 9-9 9-2.404 0-4.665-.937-6.365-2.637s-2.636-3.96-2.636-6.365v-2.582a7.027 7.027 0 0 0-.739-3.13l-1.195-2.39a.62.62 0 0 1 .553-.896A3.386 3.386 0 0 1 41 46.382V49h2V32c0-.551.449-1 1-1s1 .449 1 1v17h2v-8c0-.551.449-1 1-1s1 .449 1 1v8h2v-7c0-.551.449-1 1-1s1 .449 1 1v7h2v-6a1.001 1.001 0 0 1 2 0zm4-6a2.996 2.996 0 0 1-2 2.816V43c0-1.653-1.346-3-3-3-.537 0-1.034.153-1.471.401A2.994 2.994 0 0 0 52 39c-.537 0-1.034.153-1.471.401A2.994 2.994 0 0 0 48 38c-.352 0-.686.072-1 .184V32c0-1.654-1.346-3-3-3s-3 1.346-3 3v10.23c-.927-.756-2.094-1.23-3.382-1.23a2.621 2.621 0 0 0-2.342 3.79l1.196 2.391c.283.567.45 1.189.503 1.82H6c-1.654 0-3-1.346-3-3V6c0-1.654 1.346-3 3-3h52c1.654 0 3 1.346 3 3z" fill="#000000" opacity="1" data-original="#000000" class=""></path><path d="M37 5H7c-1.103 0-2 .897-2 2v20c0 1.103.897 2 2 2h30c1.103 0 2-.897 2-2V7c0-1.103-.897-2-2-2zm0 2 .001 14H36c-.551 0-1-.449-1-1v-8c0-1.654-1.346-3-3-3s-3 1.346-3 3v8c0 .551-.449 1-1 1s-1-.449-1-1v-5c0-1.654-1.346-3-3-3s-3 1.346-3 3v3c0 .551-.449 1-1 1s-1-.449-1-1v-6c0-1.654-1.346-3-3-3s-3 1.346-3 3v10c0 .551-.449 1-1 1s-1-.449-1-1v-1c0-1.654-1.346-3-3-3H7V7zM7 27v-7h1c.551 0 1 .449 1 1v1c0 1.654 1.346 3 3 3s3-1.346 3-3V12c0-.551.449-1 1-1s1 .449 1 1v6c0 1.654 1.346 3 3 3s3-1.346 3-3v-3c0-.551.449-1 1-1s1 .449 1 1v5c0 1.654 1.346 3 3 3s3-1.346 3-3v-8c0-.551.449-1 1-1s1 .449 1 1v8c0 1.654 1.346 3 3 3h1.001v4zM9 39c-2.206 0-4 1.794-4 4s1.794 4 4 4 4-1.794 4-4-1.794-4-4-4zm0 6c-1.103 0-2-.897-2-2s.897-2 2-2 2 .897 2 2-.897 2-2 2zM19 39c-2.206 0-4 1.794-4 4s1.794 4 4 4 4-1.794 4-4-1.794-4-4-4zm0 6c-1.103 0-2-.897-2-2s.897-2 2-2 2 .897 2 2-.897 2-2 2zM29 39c-2.206 0-4 1.794-4 4s1.794 4 4 4 4-1.794 4-4-1.794-4-4-4zm0 6c-1.103 0-2-.897-2-2s.897-2 2-2 2 .897 2 2-.897 2-2 2zM11 34c0-1.654-1.346-3-3-3s-3 1.346-3 3 1.346 3 3 3 3-1.346 3-3zm-4 0c0-.551.449-1 1-1s1 .449 1 1-.449 1-1 1-1-.449-1-1zM19 34c0-1.654-1.346-3-3-3s-3 1.346-3 3 1.346 3 3 3 3-1.346 3-3zm-4 0c0-.551.449-1 1-1s1 .449 1 1-.449 1-1 1-1-.449-1-1zM27 34c0-1.654-1.346-3-3-3s-3 1.346-3 3 1.346 3 3 3 3-1.346 3-3zm-3 1c-.551 0-1-.449-1-1s.449-1 1-1 1 .449 1 1-.449 1-1 1zM32 31c-1.654 0-3 1.346-3 3s1.346 3 3 3 3-1.346 3-3-1.346-3-3-3zm0 4c-.551 0-1-.449-1-1s.449-1 1-1 1 .449 1 1-.449 1-1 1zM45 19.184V5h-2v14.184c-1.161.414-2 1.514-2 2.816s.839 2.402 2 2.816V27h2v-2.184c1.161-.414 2-1.514 2-2.816s-.839-2.402-2-2.816zM44 23c-.551 0-1-.449-1-1s.449-1 1-1 1 .449 1 1-.449 1-1 1zM51 9.184V5h-2v4.184c-1.161.414-2 1.514-2 2.816s.839 2.402 2 2.816V27h2V14.816c1.161-.414 2-1.514 2-2.816s-.839-2.402-2-2.816zM50 13c-.551 0-1-.449-1-1s.449-1 1-1 1 .449 1 1-.449 1-1 1zM57 17.184V5h-2v12.184c-1.161.414-2 1.514-2 2.816s.839 2.402 2 2.816V27h2v-4.184c1.161-.414 2-1.514 2-2.816s-.839-2.402-2-2.816zM56 21c-.551 0-1-.449-1-1s.449-1 1-1 1 .449 1 1-.449 1-1 1z" fill="#000000" opacity="1" data-original="#000000" class=""></path></g></svg>