<?xml version="1.0" encoding="utf-8"?>
<!-- Generator: Adobe Illustrator 26.1.0, SVG Export Plug-In . SVG Version: 6.00 Build 0)  -->
<svg version="1.1" id="Layer_1" xmlns="http://www.w3.org/2000/svg" xmlns:xlink="http://www.w3.org/1999/xlink" x="0px" y="0px"
	 viewBox="0 0 5544 5544" style="enable-background:new 0 0 5544 5544;" xml:space="preserve">
<style type="text/css">
	.st0{fill:#37603D;}
	.st1{fill:#FF0000;}
	.st2{fill:#FFFF00;}
	.st3{fill:#0000FF;}
</style>
<g>
	<path d="M2938.3200684,1164.2399902v332.6400146H1496.8800049c-37.9702148,0-75.0534668,3.8192139-110.8800049,11.0880127
		c-14.9873047,3.0429688-29.7590332,6.6896973-44.2780762,10.9155273
		c-22.8474121,6.6466064-45.0789795,14.7224121-66.6019287,24.1286621
		c-39.5841064,17.2972412-76.7597656,39.0791016-110.8800049,64.7108154
		c-41.9987793,31.5391846-79.3776855,68.9180908-110.9169922,110.9169922
		c-25.6317139,34.1202393-47.4135132,71.2957764-64.7107544,110.8800049
		c-15.3815918,35.2043457-27.2148438,72.3122559-35.0442505,110.8800049
		c-7.2687988,35.8265381-11.0880127,72.909668-11.0880127,110.8800049c0,37.9702148,3.8192139,75.0534668,11.0880127,110.8798828
		c7.8294067,38.5678711,19.6626587,75.6757812,35.0442505,110.880127
		c17.2972412,39.5842285,39.0790405,76.7595215,64.7107544,110.8798828
		c31.5393066,41.9990234,68.9182129,79.3776855,110.9169922,110.9169922
		c34.1202393,25.6318359,71.2958984,47.4135742,110.8800049,64.7106934
		c21.5229492,9.4064941,43.7545166,17.4821777,66.6019287,24.1289062
		c14.519043,4.2258301,29.2907715,7.8725586,44.2780762,10.9155273
		c35.8265381,7.2687988,72.90979,11.0878906,110.8800049,11.0878906v332.6401367
		c-37.5513916,0-74.5606689-2.3347168-110.8800049-6.8684082c-6.517334-0.8068848-13.0037842-1.6879883-19.4718018-2.6425781
		c-31.0217285-4.5646973-61.5198975-10.7431641-91.4082031-18.4306641
		c-38.0072021-9.7822266-75.0227051-22.0219727-110.8800049-36.5412598
		C1098.4143066,2847.1950684,1036.5185547,2812.8776855,979.6555786,2772
		c-12.6464844-9.0922852-25.0403442-18.5107422-37.1755981-28.2375488
		c-50.9308472-40.8220215-97.2602539-87.1516113-138.0825195-138.0825195
		c-53.4749756-66.7004395-97.5066528-141.2919922-130.074585-221.7600098
		c-14.519104-35.8571777-26.7590332-72.8728027-36.5411377-110.8798828
		c-9.2954102-36.1223145-16.37323-73.1315918-21.0733032-110.880127
		c-4.5338135-36.3193359-6.8684082-73.3286133-6.8684082-110.8798828c0-37.5513916,2.3345947-74.5606689,6.8684082-110.8800049
		c4.7000732-37.7485352,11.7778931-74.7578125,21.0733032-110.8800049
		c9.7821045-38.0072021,22.0220337-75.0227051,36.5411377-110.8800049
		c32.5679321-80.4681396,76.5996094-155.0595703,130.074585-221.7600098
		c40.8222656-50.9309082,87.1516724-97.2602539,138.0825195-138.0826416
		c66.7005005-53.4748535,141.2919922-97.5065918,221.7600098-130.0744629
		c35.8572998-14.519165,72.8728027-26.7590332,110.8800049-36.5411377
		c36.1223145-9.2954102,73.1314697-16.373291,110.8800049-21.0733643
		c36.3193359-4.5338135,73.3286133-6.8684082,110.8800049-6.8684082H2938.3200684z"/>
	<path class="st0" d="M4934.1601562,2605.6799316v332.6401367h-1994.885498
		c-8.0939941-12.3693848-16.4533691-24.5476074-25.0710449-36.5288086
		c-10.3918457-14.451416-21.1472168-28.6071777-32.2600098-42.4731445
		c-46.6435547-58.1875-99.5761719-111.1203613-157.7636719-157.7578125
		c-13.8598633-11.1125488-28.0219727-21.8740234-42.4731445-32.2597656
		c-24.5415039-17.642334-49.9084473-34.21875-76.0268555-49.6496582v-1122.770874h332.6401367v1108.7999268H4934.1601562z"/>
	<rect x="2938.3200684" y="1164.2399902" class="st0" width="1995.8399658" height="332.6400146"/>
	<path d="M2938.3200684,3492.7199707c0,37.5512695-2.3347168,74.560791-6.8684082,110.880127
		c-4.7001953,37.748291-11.7780762,74.7575684-21.0732422,110.8798828
		c-9.7824707,38.0073242-22.0219727,75.0227051-36.5415039,110.880127
		C2847.1950684,3891.185791,2812.8776855,3953.0812988,2772,4009.9443359
		c-9.0922852,12.6467285-18.5107422,25.0402832-28.2375488,37.1757812
		c-40.8220215,50.9306641-87.1516113,97.2602539-138.0825195,138.0825195
		c-66.7004395,53.4746094-141.2919922,97.5068359-221.7600098,130.0742188
		c-35.8571777,14.5195312-72.8728027,26.7592773-110.8798828,36.5415039
		c-36.1223145,9.2954102-73.1315918,16.3730469-110.880127,21.0732422
		c-36.3193359,4.5336914-73.3286133,6.8681641-110.8798828,6.8681641H609.8400269v-332.6396484h1441.4399414
		c37.9702148,0,75.0534668-3.8193359,110.8798828-11.0881348c14.9873047-3.0429688,29.7590332-6.6896973,44.2780762-10.9155273
		c22.8474121-6.6464844,45.0791016-14.7224121,66.6020508-24.1286621
		c39.5842285-17.2973633,76.7595215-39.0791016,110.8798828-64.7106934
		c41.9990234-31.5393066,79.3776855-68.9182129,110.9169922-110.9169922
		c25.6318359-34.1203613,47.4135742-71.2961426,64.7106934-110.880127
		c15.3818359-35.2043457,27.2150879-72.3122559,35.0444336-110.8798828
		c7.2687988-35.8266602,11.0878906-72.909668,11.0878906-110.880127c0-37.9702148-3.8190918-75.0534668-11.0878906-110.8798828
		c-7.8293457-38.5678711-19.6625977-75.6757812-35.0444336-110.880127
		c-17.2971191-39.5842285-39.0788574-76.7595215-64.7106934-110.8798828
		c-31.5393066-41.9990234-68.9179688-79.3776855-110.9169922-110.9169922
		c-34.1203613-25.6318359-71.2956543-47.4135742-110.8798828-64.7106934
		c-21.5229492-9.4064941-43.7546387-17.4821777-66.6020508-24.1289062
		c-14.519043-4.2258301-29.2907715-7.8725586-44.2780762-10.9155273
		c-35.826416-7.2687988-72.909668-11.0878906-110.8798828-11.0878906v-332.6401367
		c37.5512695,0,74.5605469,2.3347168,110.8798828,6.8684082c6.517334,0.8068848,13.0036621,1.6879883,19.4716797,2.6425781
		c31.0219727,4.5646973,61.5200195,10.7431641,91.4084473,18.4306641
		c38.0070801,9.7822266,75.0227051,22.0219727,110.8798828,36.5412598
		c65.8256836,26.6420898,127.7216797,60.9594727,184.5844727,101.8371582
		c12.6464844,9.0922852,25.0405273,18.5107422,37.1755371,28.2373047
		c50.9309082,40.8222656,97.260498,87.1518555,138.0825195,138.0827637
		c9.7268066,12.1350098,19.1452637,24.5290527,28.2375488,37.1755371
		c40.8776855,56.862793,75.1950684,118.7587891,101.8369141,184.5844727
		c14.5195312,35.8571777,26.7590332,72.8728027,36.5415039,110.8798828
		c9.295166,36.1223145,16.3730469,73.1315918,21.0732422,110.880127
		C2935.9853516,3418.1594238,2938.3200684,3455.1687012,2938.3200684,3492.7199707z"/>
	<path class="st0" d="M4934.1601562,4047.1201172v332.6396484H2605.6799316v-13.9643555
		c41.4936523-24.5229492,81.0839844-51.9165039,118.5-81.9155273
		c58.1875-46.6376953,111.1201172-99.5703125,157.7636719-157.7578125
		c11.112793-13.8662109,21.8681641-28.0219727,32.2600098-42.4733887
		c8.6176758-11.980957,16.9770508-24.1594238,25.0710449-36.5285645H4934.1601562z"/>
	<rect x="1496.8800049" y="2638.9440918" class="st1" width="554.4000244" height="66.5279999"/>
	<rect x="1496.87854" y="2738.736084" class="st2" width="554.4000244" height="66.5279999"/>
	<rect x="1496.8800049" y="2838.5280762" class="st3" width="554.4000244" height="66.5279999"/>
</g>
</svg>
