<?xml version="1.0" encoding="utf-8"?>
<!-- Generator: Adobe Illustrator 26.1.0, SVG Export Plug-In . SVG Version: 6.00 Build 0)  -->
<svg version="1.1" id="Layer_1" xmlns="http://www.w3.org/2000/svg" xmlns:xlink="http://www.w3.org/1999/xlink" x="0px" y="0px"
	 viewBox="0 0 4324.3198242 4324.3198242" style="enable-background:new 0 0 4324.3198242 4324.3198242;" xml:space="preserve">
<style type="text/css">
	.st0{fill:#37603D;}
	.st1{fill:#FF0000;}
	.st2{fill:#FFFF00;}
	.st3{fill:#0000FF;}
</style>
<g>
	<path d="M2328.4799805,554.4000244V887.039978H887.039978c-37.9702148,0-75.0534668,3.8192139-110.8800049,11.0880127
		c-14.9873047,3.0430298-29.7589722,6.6897583-44.2780762,10.9155273
		c-22.8474121,6.6466675-45.0789185,14.7224121-66.6018677,24.1287231
		c-39.5841675,17.2972412-76.7597656,39.0790405-110.8800049,64.7107544
		c-41.9988403,31.5392456-79.3777771,68.9181519-110.9170227,110.9170532
		c-25.6316833,34.1202393-47.4135132,71.2957764-64.7107544,110.8800049
		c-15.3815613,35.2043457-27.2148743,72.3122559-35.0442505,110.8800049
		c-7.2687988,35.826416-11.0879822,72.909668-11.0879822,110.8798828c0,37.9703369,3.8191833,75.0534668,11.0879822,110.8800049
		c7.8293762,38.567749,19.6626892,75.6756592,35.0442505,110.8800049
		c17.2972412,39.5842285,39.079071,76.7597656,64.7107544,110.8800049
		c31.5392456,41.9989014,68.9181824,79.3776855,110.9170227,110.9169922
		c34.1202393,25.6317139,71.2958374,47.4135742,110.8800049,64.7106934
		c21.5229492,9.4063721,43.7544556,17.4821777,66.6018677,24.1289062
		c14.519104,4.2258301,29.2907715,7.8724365,44.2780762,10.9154053
		c35.8265381,7.2689209,72.90979,11.0880127,110.8800049,11.0880127v332.6400146
		c-37.5513306,0-74.5606689-2.3347168-110.8800049-6.8684082c-6.5172729-0.8068848-13.0037231-1.6879883-19.4717407-2.6425781
		c-31.0217285-4.5646973-61.5198975-10.7429199-91.4082031-18.4306641
		c-38.0072021-9.7822266-75.0227051-22.0219727-110.8800049-36.5412598
		c-65.8257751-26.6418457-127.7215271-60.9594727-184.5844421-101.8371582
		c-12.6464539-9.092041-25.0403748-18.5107422-37.1755676-28.2373047
		c-50.9308777-40.8222656-97.2602692-87.1517334-138.0825653-138.0826416
		c-53.4749451-66.7004395-97.5066605-141.2919922-130.074585-221.7600098
		c-14.5191193-35.8572998-26.759037-72.8728027-36.5411224-110.8800049
		c-9.2954197-36.1223145-16.3732529-73.1314697-21.0733376-110.8800049C2.3346264,1516.0006104,0,1478.991333,0,1441.4399414
		c0-37.5512695,2.3346264-74.5605469,6.8684149-110.8798828c4.7000828-37.7485352,11.7779169-74.7578125,21.0733376-110.8800049
		c9.7820835-38.0072021,22.0220013-75.0227051,36.5411224-110.8800049
		c32.5679169-80.4681396,76.5996323-155.0595703,130.074585-221.7600708
		c40.8222961-50.9308472,87.1516876-97.2602539,138.0825653-138.0825806
		c66.70047-53.4749146,141.2919006-97.5065918,221.7600098-130.0745239
		c35.8572998-14.519104,72.8728027-26.7590332,110.8800049-36.5411377
		c36.1221924-9.2954712,73.1314697-16.373291,110.8799438-21.0733643
		c36.3193359-4.5337524,73.3286743-6.8683472,110.8800049-6.8683472H2328.4799805z"/>
	<path class="st0" d="M4324.3198242,1995.8399658v332.6400146H2329.4345703
		c-8.0939941-12.3693848-16.453125-24.5476074-25.0708008-36.5288086
		c-10.3920898-14.451416-21.1474609-28.6069336-32.2600098-42.4731445
		c-46.6435547-58.1872559-99.576416-111.1203613-157.7636719-157.7575684
		c-13.8601074-11.112793-28.0219727-21.8740234-42.4733887-32.2600098
		c-24.5413818-17.6420898-49.9083252-34.21875-76.0267334-49.6496582V887.039978h332.6400146v1108.8000488H4324.3198242z"/>
	<rect x="2328.4799805" y="554.4000244" class="st0" width="1995.8399658" height="332.6400146"/>
	<path d="M2328.4799805,2882.8798828c0,37.5515137-2.3347168,74.560791-6.8684082,110.880127
		c-4.7001953,37.748291-11.777832,74.7575684-21.0732422,110.8798828
		c-9.7822266,38.0073242-22.0219727,75.0227051-36.5412598,110.880127
		c-26.6418457,65.8256836-60.9594727,127.7214355-101.8371582,184.5842285
		c-9.092041,12.6467285-18.5107422,25.0405273-28.2373047,37.1757812
		c-40.8222656,50.9309082-87.1517334,97.2602539-138.0826416,138.0825195
		c-66.7004395,53.4748535-141.2919922,97.5068359-221.7600098,130.0744629
		c-35.8572998,14.5192871-72.8728027,26.7590332-110.8800049,36.5412598
		c-36.1223145,9.2954102-73.1314697,16.3730469-110.8800049,21.0734863
		c-36.3193359,4.5336914-73.3286133,6.8681641-110.8800049,6.8681641H0v-332.6398926h1441.4399414
		c37.9703369,0,75.0535889-3.8193359,110.8800049-11.0881348c14.9874268-3.0429688,29.7590332-6.6894531,44.2780762-10.9155273
		c22.8475342-6.6464844,45.0789795-14.7224121,66.6019287-24.1286621
		c39.5842285-17.2973633,76.7597656-39.0791016,110.8800049-64.7106934
		c41.9989014-31.5393066,79.3776855-68.9179688,110.9169922-110.9169922
		c25.6317139-34.1203613,47.4135742-71.2958984,64.7106934-110.880127
		c15.3817139-35.2043457,27.2149658-72.3122559,35.0443115-110.8798828
		c7.2689209-35.8266602,11.0880127-72.909668,11.0880127-110.880127c0-37.9702148-3.8190918-75.0534668-11.0880127-110.8798828
		c-7.8293457-38.567627-19.6625977-75.6757812-35.0443115-110.8798828
		c-17.2971191-39.5842285-39.0789795-76.7597656-64.7106934-110.880127
		c-31.5393066-41.9987793-68.9180908-79.3776855-110.9169922-110.9169922
		c-34.1202393-25.6315918-71.2957764-47.4135742-110.8800049-64.7106934
		c-21.5229492-9.40625-43.7543945-17.4821777-66.6019287-24.1289062
		c-14.519043-4.2258301-29.2906494-7.8723145-44.2780762-10.9152832
		c-35.826416-7.269043-72.909668-11.0881348-110.8800049-11.0881348v-332.6400146
		c37.5513916,0,74.5606689,2.3347168,110.8800049,6.8684082c6.517334,0.8070068,13.0037842,1.6879883,19.4716797,2.6425781
		c31.0218506,4.5646973,61.5200195,10.743042,91.4083252,18.4306641
		c38.0072021,9.7822266,75.0227051,22.0220947,110.8800049,36.5411377
		c65.8256836,26.6420898,127.7215576,60.9594727,184.5843506,101.8371582
		c12.6464844,9.0922852,25.0405273,18.5109863,37.1756592,28.2375488
		c50.9309082,40.8222656,97.260376,87.1516113,138.0826416,138.0825195
		c9.7265625,12.1352539,19.1452637,24.5292969,28.2373047,37.1757812
		c40.8776855,56.862793,75.1953125,118.7585449,101.8371582,184.5842285
		c14.5192871,35.8574219,26.7590332,72.8728027,36.5412598,110.880127
		c9.2954102,36.1223145,16.3730469,73.1313477,21.0732422,110.8798828
		C2326.1452637,2808.3193359,2328.4799805,2845.3286133,2328.4799805,2882.8798828z"/>
	<path class="st0" d="M4324.3198242,3437.2800293v332.6398926H1995.8399658v-13.9645996
		c41.4936523-24.5229492,81.0841064-51.916748,118.5001221-81.9157715
		c58.1872559-46.637207,111.1201172-99.5703125,157.7636719-157.7575684
		c11.1125488-13.8659668,21.8679199-28.0219727,32.2600098-42.4733887
		c8.6176758-11.980957,16.9768066-24.1591797,25.0708008-36.5285645H4324.3198242z"/>
	<rect x="887.039978" y="2029.1040039" class="st1" width="554.4000244" height="66.5279999"/>
	<rect x="887.0385132" y="2128.8959961" class="st2" width="554.4000244" height="66.5279999"/>
	<rect x="887.039978" y="2228.6879883" class="st3" width="554.4000244" height="66.5279999"/>
</g>
</svg>
