<?xml version="1.0" encoding="utf-8"?>
<!-- Generator: Adobe Illustrator 26.1.0, SVG Export Plug-In . SVG Version: 6.00 Build 0)  -->
<svg version="1.1" id="Layer_1" xmlns="http://www.w3.org/2000/svg" xmlns:xlink="http://www.w3.org/1999/xlink" x="0px" y="0px"
	 viewBox="0 0 9166.5283203 3240" style="enable-background:new 0 0 9166.5283203 3240;" xml:space="preserve">
<style type="text/css">
	.st0{fill:#37603D;}
	.st1{fill:#FF0000;}
	.st2{fill:#FFFF00;}
	.st3{fill:#0000FF;}
</style>
<rect x="3239.9995117" width="194.3999634" height="3239.9995117"/>
<g>
	<path d="M4262.4023438,1850.1219482c-149.956543,0-265.3161621-32.6514893-346.0793457-97.9449463
		c-80.7907715-65.2982178-122.6196289-155.0198975-125.5236816-269.178833h246.6914062
		c7.7255859,57.0933838,29.244873,100.3742676,64.5771484,129.875
		c35.2944336,29.5194092,89.2421875,44.2581787,161.7861328,44.2581787c54.1708984,0,98.4291992-11.6114502,132.7836914-34.8294678
		c34.3271484-23.2180176,51.5092773-56.0928955,51.5092773-98.6710205c0-19.3413086-4.5981445-36.0300293-13.7851562-50.0661621
		c-9.2050781-14.0080566-23.2226562-26.592041-42.0800781-37.7241211
		c-18.8666992-11.1134033-41.8564453-21.9940186-68.9326172-32.6513672
		c-27.0854492-10.6340332-58.0429688-21.7661133-92.8725586-33.3774414
		c-45.4770508-15.460083-87.7900391-31.6740723-126.9570312-48.6094971
		c-39.1853027-16.9121094-73.2888184-37.0028076-102.3100586-60.2208252
		c-29.0214844-23.2181396-52.0114746-51.0155029-68.923584-83.4343262
		c-16.9401855-32.4000244-25.4008789-71.8321533-25.4008789-118.2636719c0-49.3401489,9.1867676-94.5476685,27.5695801-135.6784058
		c18.373291-41.1074829,45.2167969-76.1835327,80.5395508-105.2049561
		c35.3039551-29.0214233,79.0874023-51.7415771,131.3222656-68.2022095
		c52.2441406-16.437439,112.2138672-24.6654663,179.9365234-24.6654663
		c124.7978516,0,222.4916992,28.0673828,293.1181641,84.1602783
		c70.6083984,56.1161499,110.277832,135.4503784,118.9897461,237.9794312h-237.9794922
		c-4.8491211-41.5822144-22.9897461-75.2062988-54.4125977-100.848999
		c-31.4414062-25.6240845-74.2568359-38.4547729-128.418457-38.4547729c-52.2441406,0-93.1235352,10.8806763-122.6196289,32.6514282
		c-29.5146484,21.7660522-44.2583008,49.5821533-44.2583008,83.4342041c0,17.4147949,4.5795898,32.8981934,13.784668,46.4361572
		c9.1870117,13.5567627,23.6884766,26.1174316,43.5322266,37.7287598
		c19.8164062,11.6068115,44.2583008,22.9901123,73.2797852,34.098877
		c29.0307617,11.131958,63.3574219,22.9899902,103.0268555,35.5507812
		c41.5869141,13.5612793,81.4887695,29.0213623,119.7158203,46.4361572
		c38.1987305,17.4146729,71.8369141,38.2266846,100.8583984,62.3988037
		c29.0209961,24.1906738,51.9741211,53.2121582,68.9140625,87.064209
		c16.9213867,33.8754883,25.3916016,74.50354,25.3916016,121.8891602c0,51.2900391-10.1455078,98.6755371-30.4550781,142.2077637
		c-20.328125,43.5321045-49.3496094,81.0328369-87.0830078,112.4603271
		c-37.7148438,31.4506836-83.434082,55.8648682-137.1210938,73.279541
		C4390.8300781,1841.4191895,4330.1064453,1850.1219482,4262.4023438,1850.1219482z"/>
	<path d="M5285.4121094,1850.1219482c-73.5307617,0-140.0253906-11.8580322-199.5200195-35.5461426
		c-59.4946289-23.6973877-110.0541992-56.8236084-151.6411133-99.4016113
		c-41.6054688-42.5595703-73.7729492-93.3470459-96.5024414-152.3671875
		c-22.7294922-58.9921875-34.1035156-124.2950439-34.1035156-195.8945312
		c0-88.0183105,14.2783203-170.9779053,42.8154297-248.8601074
		c28.519043-77.8636475,68.6723633-145.8378296,120.4418945-203.8806763
		c51.7324219-58.0428467,113.4052734-103.9810181,185.0185547-137.8517456
		c71.5761719-33.8521118,150.9150391-50.7875366,237.9794922-50.7875366
		c73.4936523,0,139.5224609,11.6067505,198.0678711,34.8248291
		c58.5083008,23.2180176,108.5834961,56.1161499,150.1889648,98.6755981
		c41.5869141,42.578125,73.4936523,93.3656006,95.7763672,152.3624878
		c22.2270508,59.0202026,33.3588867,123.8390503,33.3588867,194.4472046c0,89.963623-14.0361328,174.1286621-42.0708008,252.4854736
		c-28.0722656,78.3615723-67.480957,146.5638428-118.2636719,204.6066895s-111.9902344,103.7529297-183.5664062,137.1303711
		C5451.7963867,1833.4332275,5372.4760742,1850.1219482,5285.4121094,1850.1219482z M5291.2202148,1652.7752686
		c53.184082,0,100.3554688-12.3326416,141.4770508-37.0026855c41.1025391-24.6655273,75.4667969-57.791626,103.0361328-99.3970947
		c27.5693359-41.5821533,48.362793-89.2421875,62.3989258-142.9337158
		c13.9985352-53.6915283,21.0351562-109.0583496,21.0351562-166.1518555c0-43.5321045-5.3237305-82.9362793-15.9716797-118.2636719
		c-10.6479492-35.2994385-26.1176758-65.5216064-46.4267578-90.6896362
		c-20.3095703-25.1447754-45.4775391-44.7374878-75.4672852-58.7688599
		c-29.9892578-14.0127563-64.8188477-21.0400391-104.4692383-21.0400391
		c-52.2348633,0-98.4384766,12.8306885-138.5732422,38.4501343
		c-40.1533203,25.6473389-74.0151367,59.2714233-101.5844727,100.8535767
		c-27.5693359,41.6054688-48.6044922,89.2423096-63.1245117,142.9291992
		c-14.5014648,53.6914062-21.7617188,108.1090088-21.7617188,163.2478027c0,42.5827637,5.0820312,81.512207,15.2275391,116.8116455
		c10.1640625,35.3273926,25.1494141,65.8009033,44.9931641,91.4202881
		c19.8071289,25.6428223,44.7329102,45.4821777,74.7226562,59.494873
		C5216.7211914,1645.7712402,5251.5322266,1652.7752686,5291.2202148,1652.7752686z"/>
	<path d="M5952.9233398,744.3944702h875.0175781l-40.6376953,206.0540161h-317.7836914l-168.3203125,873.5560303h-242.3354492
		l168.3203125-873.5560303h-314.8793945L5952.9233398,744.3944702z"/>
	<path d="M6928.0541992,744.3944702h875.0175781l-40.6376953,206.0540161h-317.7832031l-168.3208008,873.5560303h-242.3354492
		l168.3208008-873.5560303h-314.8798828L6928.0541992,744.3944702z"/>
	<path d="M8228.2480469,1850.1219482c-73.53125,0-140.0253906-11.8580322-199.5205078-35.5461426
		c-59.4946289-23.6973877-110.0541992-56.8236084-151.6411133-99.4016113
		c-41.6054688-42.5595703-73.7724609-93.3470459-96.5019531-152.3671875
		c-22.7294922-58.9921875-34.1035156-124.2950439-34.1035156-195.8945312
		c0-88.0183105,14.277832-170.9779053,42.8154297-248.8601074
		c28.5185547-77.8636475,68.6723633-145.8378296,120.4418945-203.8806763
		c51.7319336-58.0428467,113.4047852-103.9810181,185.0185547-137.8517456
		c71.5761719-33.8521118,150.9150391-50.7875366,237.9794922-50.7875366
		c73.4931641,0,139.5224609,11.6067505,198.0673828,34.8248291
		c58.5087891,23.2180176,108.5839844,56.1161499,150.1894531,98.6755981
		c41.5869141,42.578125,73.4931641,93.3656006,95.7763672,152.3624878
		c22.2265625,59.0202026,33.3583984,123.8390503,33.3583984,194.4472046c0,89.963623-14.0361328,174.1286621-42.0703125,252.4854736
		c-28.0722656,78.3615723-67.4814453,146.5638428-118.2636719,204.6066895
		c-50.7832031,58.0428467-111.9902344,103.7529297-183.5664062,137.1303711
		C8394.6318359,1833.4332275,8315.3115234,1850.1219482,8228.2480469,1850.1219482z M8234.0556641,1652.7752686
		c53.1845703,0,100.3554688-12.3326416,141.4775391-37.0026855c41.1025391-24.6655273,75.4667969-57.791626,103.0361328-99.3970947
		c27.5693359-41.5821533,48.3623047-89.2421875,62.3984375-142.9337158
		c13.9990234-53.6915283,21.0351562-109.0583496,21.0351562-166.1518555c0-43.5321045-5.3232422-82.9362793-15.9716797-118.2636719
		c-10.6474609-35.2994385-26.1171875-65.5216064-46.4267578-90.6896362
		c-20.3095703-25.1447754-45.4775391-44.7374878-75.4667969-58.7688599
		c-29.9892578-14.0127563-64.8193359-21.0400391-104.4697266-21.0400391c-52.234375,0-98.4384766,12.8306885-138.5732422,38.4501343
		c-40.1533203,25.6473389-74.0146484,59.2714233-101.5839844,100.8535767
		c-27.5693359,41.6054688-48.6049805,89.2423096-63.125,142.9291992
		c-14.5014648,53.6914062-21.7612305,108.1090088-21.7612305,163.2478027c0,42.5827637,5.0820312,81.512207,15.2270508,116.8116455
		c10.1640625,35.3273926,25.1494141,65.8009033,44.9936523,91.4202881
		c19.8066406,25.6428223,44.7329102,45.4821777,74.722168,59.494873
		C8159.5566406,1645.7712402,8194.3671875,1652.7752686,8234.0556641,1652.7752686z"/>
</g>
<g>
	<path class="st0" d="M3790.7998047,1959.3077393h386.5917969v65.9304199h-312.0456543v164.0767822h282.0773926v62.1845703
		h-282.0773926v183.5561523h320.2873535v68.1782227h-394.8334961V1959.3077393z"/>
	<path class="st0" d="M4277.7856445,1959.3077393h78.671875l222.5532227,340.5999756
		c6.8076172,10.2333984,13.7402344,21.5651855,20.796875,33.9902344
		c7.0473633,12.4296875,13.5009766,24.2458496,19.3369141,35.4528809
		c6.8076172,12.6743164,13.6113281,25.5793457,20.4282227,38.7333984h2.1928711
		c-0.9814453-13.6340332-1.953125-27.2817383-2.9204102-40.9296875
		c-0.9814453-11.6914062-1.5844727-24.3564453-1.8242188-38.0087891
		c-0.2485352-13.6340332-0.3637695-26.059082-0.3637695-37.2753906v-332.5626221h70.0512695v543.5513916h-77.4750977
		l-222.1918945-340.5844727c-6.8286133-10.2331543-13.7724609-21.4350586-20.831543-33.6196289
		c-7.0683594-12.1755371-13.7719727-23.8664551-20.1025391-35.0822754
		c-7.3081055-12.6645508-14.3764648-25.578125-21.1958008-38.7407227h-1.4580078
		c0.4799805,13.6516113,1.2089844,27.2988281,2.1918945,40.9367676c0.4794922,11.6911621,0.96875,24.1157227,1.4624023,37.2736816
		c0.4799805,13.1535645,0.7290039,25.3383789,0.7290039,36.5402832v333.651123h-70.0512695V1959.3077393z"/>
	<path class="st0" d="M5223.8041992,2426.0651855h-2.027832c-19.4902344,29.7150879-43.4726562,51.8710938-71.965332,66.4816895
		c-28.4926758,14.6108398-60.5273438,21.9208984-96.0766602,21.9208984c-37.9887695,0-72.5786133-6.9411621-103.746582-20.8232422
		c-31.1767578-13.8820801-57.9677734-33.2431641-80.3637695-58.083252
		c-22.8984375-24.8400879-40.4331055-54.4306641-52.6044922-88.7668457
		c-12.1801758-34.3408203-18.2680664-72.2097168-18.2680664-113.6115723c0-41.3925781,5.8481445-79.510498,17.5395508-114.3400879
		c11.6870117-34.815918,28.9726562-65.1396484,51.8710938-90.9622803
		c21.9160156-24.8400879,48.8222656-44.3118896,80.7324219-58.4476318
		c31.8964844-14.1218262,69.0415039-21.1873779,111.4165039-21.1873779c32.1455078,0,60.753418,4.1461182,85.847168,12.4200439
		c25.0800781,8.2877197,46.871582,19.8546143,65.3891602,34.7052002
		c18.5029297,14.8643799,33.6074219,32.6343994,45.2988281,53.3328857
		c11.6865234,20.7124023,20.2050781,43.4726562,25.5688477,68.3127441h-77.5395508
		c-8.2875977-30.6813965-24.1098633-55.7597656-47.4868164-75.2486572
		c-23.3764648-19.4750977-56.0131836-29.2196045-97.8916016-29.2196045c-31.668457,0-59.1772461,5.6031494-82.5537109,16.800293
		c-23.3764648,11.2110596-42.6254883,26.6647949-57.7148438,46.3935547
		c-15.1035156,19.7241211-26.3007812,43.1005859-33.6054688,70.1342773
		c-7.3046875,27.0290527-10.9575195,56.1379395-10.9575195,87.2988281c0,32.1433105,4.496582,61.4921875,13.512207,88.0322266
		c9.0068359,26.5539551,21.5551758,49.3127441,37.6269531,68.3081055
		c16.0717773,18.9956055,35.3066406,33.7297363,57.7148438,44.1982422
		c22.3945312,10.4777832,46.9931641,15.7075195,73.7822266,15.7075195c26.7797852,0,50.2856445-4.2565918,70.503418-12.7836914
		c20.2036133-8.5178223,36.8886719-20.0930176,50.0410156-34.7028809
		c13.1479492-14.6096191,23.012207-31.5253906,29.5839844-50.7697754
		c6.5761719-19.2399902,9.8642578-39.5681152,9.8642578-61.0078125v-11.6860352h-157.7084961v-63.3081055h231.5058594v287.6962891
		h-47.5410156L5223.8041992,2426.0651855z"/>
	<path class="st0" d="M5391.4858398,1959.3077393h74.5463867v543.9261475h-74.5463867V1959.3077393z"/>
	<path class="st0" d="M5579.9121094,1959.3077393h78.6713867l222.5532227,340.5999756
		c6.8081055,10.2333984,13.7402344,21.5651855,20.796875,33.9902344
		c7.0473633,12.4296875,13.5009766,24.2458496,19.3369141,35.4528809
		c6.8081055,12.6743164,13.6157227,25.5793457,20.4331055,38.7333984h2.1879883
		c-0.9814453-13.6340332-1.9487305-27.2817383-2.9204102-40.9296875
		c-0.980957-11.6914062-1.5844727-24.3564453-1.8242188-38.0087891c-0.2485352-13.6340332-0.3637695-26.059082-0.3637695-37.2753906
		v-332.5626221h70.0512695v543.5513916h-77.4750977l-222.1918945-340.5844727
		c-6.8330078-10.2331543-13.7724609-21.4350586-20.831543-33.6196289
		c-7.0683594-12.1755371-13.7719727-23.8664551-20.0976562-35.0822754
		c-7.3129883-12.6645508-14.3813477-25.578125-21.1958008-38.7407227h-1.4624023
		c0.4794922,13.6516113,1.2084961,27.2988281,2.1914062,40.9367676c0.4799805,11.6911621,0.96875,24.1157227,1.4624023,37.2736816
		c0.4799805,13.1535645,0.7290039,25.3383789,0.7290039,36.5402832v333.651123h-70.0507812V1959.3077393z"/>
	<path class="st0" d="M6121.2158203,1959.3077393h386.9667969v65.9304199h-312.0458984v164.0767822h282.0771484v62.1845703
		H6195.762207v183.5561523h320.2871094v68.1782227h-394.8334961V1959.3077393z"/>
	<path class="st0" d="M6608.2016602,1959.3077393h386.5922852v65.9304199h-312.0458984v164.0767822h282.0776367v62.1845703
		h-282.0776367v183.5561523h320.2871094v68.1782227h-394.8334961V1959.3077393z"/>
	<path class="st0" d="M7094.8134766,1959.3077393h254.6088867c24.3007812,0,46.4106445,3.5430908,66.3486328,10.5970459
		c19.9282227,7.0725098,37.0585938,17.1759033,51.4042969,30.3334961c14.3271484,13.1529541,25.3916016,28.9908447,33.1694336,47.5
		c7.769043,18.5275879,11.6669922,38.9929199,11.6669922,61.395752c0,33.1384277-7.543457,61.2758789-22.6025391,84.4123535
		c-15.0678711,23.145752-40.5883789,40.3168945-76.5561523,51.5229492v2.1914062
		c15.0634766,4.3828125,27.7109375,10.232666,37.9145508,17.5402832
		c10.2080078,7.3078613,18.4692383,16.2023926,24.7885742,26.6750488
		c6.3144531,10.4816895,11.050293,23.0209961,14.2167969,37.6364746c3.1572266,14.6201172,5.472168,31.6806641,6.9267578,51.1630859
		c1.4589844,21.4433594,3.1572266,39.3481445,5.1040039,53.7143555c1.9375,14.3757324,3.8842773,26.0708008,5.8359375,35.0808105
		c1.9331055,9.0192871,4.0087891,15.8378906,6.1948242,20.4606934c2.1860352,4.6364746,4.7402344,7.9257812,7.6538086,9.8681641
		v3.8342285h-79.6308594c-2.9189453-2.4321289-5.3632812-6.0871582-7.3046875-10.965332
		c-1.9511719-4.8686523-3.652832-11.9387207-5.1147461-21.2009277c-1.4570312-9.2531738-2.6791992-21.0766602-3.6523438-35.4567871
		c-0.9775391-14.3708496-2.1904297-32.5307617-3.6572266-54.4655762
		c-2.4394531-38.4934082-12.1791992-65.5463867-29.2197266-81.1540527
		c-17.0541992-15.5893555-43.3549805-23.3933105-78.9018555-23.3933105h-144.6469727v226.6359863h-74.5463867V1959.3077393z
		 M7169.3598633,2216.6611328h155.652832c37.0146484,0,64.6699219-8.6401367,82.9375-25.9389648
		c18.2768555-17.2895508,27.4106445-40.7976074,27.4106445-70.5192871c0-32.152832-8.1650391-56.2697754-24.4858398-72.3508301
		c-16.3300781-16.076416-43.7314453-24.1123047-82.2089844-24.1123047h-159.3061523V2216.6611328z"/>
	<path class="st0" d="M7608.0219727,1959.3077393h74.5463867v543.9261475h-74.5463867V1959.3077393z"/>
	<path class="st0" d="M7796.4482422,1959.3077393h78.6713867l222.5532227,340.5999756
		c6.8081055,10.2333984,13.7402344,21.5651855,20.796875,33.9902344
		c7.0473633,12.4296875,13.5009766,24.2458496,19.3369141,35.4528809
		c6.8081055,12.6743164,13.6157227,25.5793457,20.4331055,38.7333984h2.1879883
		c-0.980957-13.6340332-1.9482422-27.2817383-2.9204102-40.9296875c-0.980957-11.6914062-1.5844727-24.3564453-1.8242188-38.0087891
		c-0.2485352-13.6340332-0.3637695-26.059082-0.3637695-37.2753906v-332.5626221h70.0507812v543.5513916h-77.4746094
		l-222.1918945-340.5844727c-6.8330078-10.2331543-13.7724609-21.4350586-20.831543-33.6196289
		c-7.0683594-12.1755371-13.7719727-23.8664551-20.0976562-35.0822754
		c-7.3129883-12.6645508-14.3813477-25.578125-21.1958008-38.7407227h-1.4624023
		c0.4794922,13.6516113,1.2084961,27.2988281,2.1914062,40.9367676c0.4799805,11.6911621,0.96875,24.1157227,1.4624023,37.2736816
		c0.4799805,13.1535645,0.7290039,25.3383789,0.7290039,36.5402832v333.651123h-70.0507812V1959.3077393z"/>
	<path class="st0" d="M8742.8408203,2426.0651855h-2.1289062c-19.4853516,29.7150879-43.4716797,51.8710938-71.9648438,66.4816895
		c-28.4931641,14.6108398-60.5234375,21.9208984-96.0722656,21.9208984c-37.9931641,0-72.5830078-6.9411621-103.7509766-20.8232422
		c-31.1728516-13.8820801-57.9677734-33.2431641-80.3642578-58.083252
		c-22.8984375-24.8400879-40.4326172-54.4306641-52.6035156-88.7668457
		c-12.1806641-34.3408203-18.2636719-72.2097168-18.2636719-113.6115723c0-41.3925781,5.8427734-79.510498,17.5341797-114.3400879
		c11.6914062-34.815918,28.9726562-65.1396484,51.8710938-90.9622803
		c21.9208984-24.8400879,48.8271484-44.3118896,80.7333984-58.4476318
		c31.8964844-14.1218262,69.0410156-21.1873779,111.4208984-21.1873779c32.1455078,0,60.7529297,4.1461182,85.8427734,12.4200439
		c25.0791016,8.2877197,46.8710938,19.8546143,65.3886719,34.7052002
		c18.5029297,14.8643799,33.6074219,32.6343994,45.2988281,53.3328857
		c11.6865234,20.7124023,20.2050781,43.4726562,25.5683594,68.3127441h-77.4384766
		c-8.2871094-30.6813965-24.1054688-55.7597656-47.4863281-75.2486572
		c-23.3769531-19.4750977-56.0087891-29.2196045-97.8916016-29.2196045c-31.6689453,0-59.1777344,5.6031494-82.5537109,16.800293
		c-23.3769531,11.2110596-42.6259766,26.6647949-57.7148438,46.3935547
		c-15.1035156,19.7241211-26.3007812,43.1005859-33.6054688,70.1342773
		c-7.3046875,27.0290527-10.9580078,56.1379395-10.9580078,87.2988281c0,32.1433105,4.4970703,61.4921875,13.5175781,88.0322266
		c9.0058594,26.5539551,21.5498047,49.3127441,37.6220703,68.3081055
		c16.0712891,18.9956055,35.3066406,33.7297363,57.7099609,44.1982422
		c22.3994141,10.4777832,46.9980469,15.7075195,73.7910156,15.7075195c26.7802734,0,50.28125-4.2565918,70.4990234-12.7836914
		c20.2041016-8.5178223,36.8935547-20.0930176,50.0410156-34.7028809
		c13.1484375-14.6096191,23.0126953-31.5253906,29.5888672-50.7697754
		c6.5712891-19.2399902,9.859375-39.5681152,9.859375-61.0078125v-11.6860352h-157.7080078v-63.3081055h231.5058594v287.6962891
		h-47.5410156L8742.8408203,2426.0651855z"/>
</g>
<g>
	<path d="M1717.199707,680.3999023v194.3999634H874.7998657c-22.1904297,0-43.8624268,2.2319946-64.7999878,6.4799805
		c-8.7588501,1.7784424-17.3916016,3.9096069-25.8768311,6.3792114
		c-13.352356,3.8843994-26.3447876,8.6040039-38.9231567,14.1011963
		c-23.133606,10.1087646-44.8596191,22.8383789-64.7999878,37.8179932
		c-24.5447998,18.4320068-46.3895874,40.2767944-64.8215942,64.8215942
		c-14.9795532,19.9403687-27.7092285,41.6664429-37.8179932,64.7999878
		c-8.9892578,20.5739746-15.9047852,42.260376-20.4804077,64.8000488c-4.2479858,20.9375-6.4799805,42.6094971-6.4799805,64.7999268
		s2.2319946,43.8624268,6.4799805,64.8000488c4.5756226,22.5395508,11.4911499,44.2259521,20.4804077,64.7999268
		c10.1087646,23.133667,22.8384399,44.8594971,37.8179932,64.8000488
		c18.4320068,24.5446777,40.2767944,46.3895264,64.8215942,64.8215332
		c19.9403687,14.9796143,41.6663818,27.7092285,64.7999878,37.8179932
		c12.5783691,5.4971924,25.5708008,10.2167969,38.9231567,14.1011963c8.4852295,2.4696045,17.117981,4.6008301,25.8768311,6.3791504
		c20.937561,4.2480469,42.6095581,6.4801025,64.7999878,6.4801025v194.3999023
		c-21.9456177,0-43.5744019-1.3643799-64.7999878-4.013916c-3.8088379-0.4716797-7.5996094-0.9865723-11.3795776-1.5444336
		c-18.1296387-2.6677246-35.953186-6.2784424-53.4204102-10.7711182
		c-22.2119751-5.7169189-43.8444214-12.8701172-64.7999878-21.3552246
		c-38.4696045-15.5700684-74.6424561-35.6257324-107.8740234-59.5152588
		c-7.3907471-5.3135986-14.6339722-10.8179932-21.7259521-16.5024414
		c-29.7648315-23.8570557-56.8404236-50.9327393-80.6976013-80.6975098
		c-31.2515869-38.980835-56.9844055-82.5732422-76.0175781-129.5999756
		c-8.485199-20.9556885-15.6383972-42.5880127-21.3552246-64.8000488
		c-5.432373-21.1104736-9.5687561-42.7391357-12.3155823-64.7999268
		c-2.6495972-21.2255859-4.0140076-42.8544922-4.0140076-64.8000488s1.3644104-43.5744629,4.0140076-64.7999268
		c2.7468262-22.0609131,6.8832092-43.6896973,12.3155823-64.8000488
		c5.7168274-22.2120361,12.8700256-43.8443604,21.3552246-64.7999878
		c19.0331726-47.0267944,44.7659912-90.6192017,76.0175781-129.5999756
		c23.8571777-29.7647705,50.9327698-56.8403931,80.6976013-80.6976318
		c38.9807739-31.2515869,82.5731812-56.984375,129.5999756-76.0175781
		c20.9555664-8.4851685,42.5880127-15.6383667,64.7999878-21.3551636
		c21.1104126-5.4324341,42.7391968-9.5687866,64.7999878-12.3156128
		c21.2255859-2.6495972,42.8543701-4.0139771,64.7999878-4.0139771H1717.199707z"/>
	<path class="st0" d="M2883.5996094,1522.7998047v194.3999023H1717.7576904
		c-4.7303467-7.2287598-9.6156006-14.3460693-14.6519775-21.3480225
		c-6.0732422-8.4455566-12.3587646-16.7183838-18.8531494-24.8218994
		c-27.2592773-34.0056152-58.1939697-64.9404297-92.199585-92.1960449
		c-8.0999756-6.4943848-16.3764648-12.7835693-24.8220215-18.8531494
		c-14.3424072-10.3104248-29.1672363-19.9980469-44.4311523-29.0161133V874.7998657h194.3999023v647.999939H2883.5996094z"/>
	<rect x="1717.199707" y="680.3999023" class="st0" width="1166.3997803" height="194.3999634"/>
	<path d="M1717.199707,2041.199707c0,21.9455566-1.3643799,43.5744629-4.013916,64.8000488
		c-2.7469482,22.0605469-6.8833008,43.6894531-12.3155518,64.7998047
		c-5.717041,22.2121582-12.8701172,43.8444824-21.3553467,64.8000488
		c-15.5699463,38.4694824-35.6256104,74.642334-59.5151367,107.8740234
		c-5.3135986,7.3908691-10.8179932,14.6340332-16.5024414,21.7260742
		c-23.8570557,29.7648926-50.9327393,56.840332-80.6975098,80.6975098
		c-38.980835,31.2514648-82.5732422,56.984375-129.5999756,76.0175781
		c-20.9556885,8.4853516-42.5880127,15.6384277-64.8000488,21.3552246
		c-21.1104736,5.432373-42.7391357,9.5686035-64.7999268,12.3156738c-21.2255859,2.6494141-42.8544922,4.013916-64.8000488,4.013916
		H356.3999329V2365.199707h842.3999023c22.1904297,0,43.8624268-2.2321777,64.8000488-6.4799805
		c8.7587891-1.7785645,17.3916016-3.909668,25.876709-6.3793945c13.352417-3.8842773,26.3448486-8.6040039,38.9232178-14.1010742
		c23.133667-10.1088867,44.8594971-22.8383789,64.8000488-37.8181152
		c24.5446777-18.4318848,46.3895264-40.2766113,64.8215332-64.8215332
		c14.9796143-19.9404297,27.7092285-41.6665039,37.8179932-64.8000488
		c8.9892578-20.5739746,15.9047852-42.2602539,20.4803467-64.7998047
		c4.2480469-20.9377441,6.4801025-42.6096191,6.4801025-64.8000488s-2.2320557-43.8624268-6.4801025-64.8000488
		c-4.5755615-22.5395508-11.4910889-44.2259521-20.4803467-64.7999268
		c-10.1087646-23.133667-22.8383789-44.8596191-37.8179932-64.8000488
		c-18.4320068-24.5447998-40.2768555-46.3895264-64.8215332-64.8215332
		c-19.9405518-14.9796143-41.6663818-27.7092285-64.8000488-37.8179932
		c-12.5783691-5.4971924-25.5708008-10.2167969-38.9232178-14.1011963
		c-8.4851074-2.4697266-17.1179199-4.6008301-25.876709-6.3792725c-20.9376221-4.2479248-42.6096191-6.4799805-64.8000488-6.4799805
		v-194.3999023c21.9455566,0,43.5744629,1.3643799,64.8000488,4.013916
		c3.8087158,0.4716797,7.5994873,0.9864502,11.3795166,1.5444336c18.1296387,2.6676025,35.9532471,6.2783203,53.4204102,10.7711182
		c22.2120361,5.7169189,43.8443604,12.8699951,64.8000488,21.3552246
		c38.4694824,15.5700684,74.642334,35.6257324,107.8739014,59.5152588
		c7.3907471,5.3135986,14.6340332,10.8179932,21.7260742,16.5023193
		c29.7647705,23.8571777,56.8404541,50.9328613,80.6975098,80.6976318
		c5.6844482,7.092041,11.1888428,14.3352051,16.5024414,21.7260742
		c23.8895264,33.2314453,43.9451904,69.4044189,59.5151367,107.8739014
		c8.4852295,20.9555664,15.6383057,42.5880127,21.3553467,64.8000488
		c5.432251,21.1103516,9.5686035,42.7391357,12.3155518,64.7999268
		C1715.8353271,1997.6252441,1717.199707,2019.2541504,1717.199707,2041.199707z"/>
	<path class="st0" d="M2883.5996094,2365.199707v194.3999023H1522.7998047v-8.1611328
		c24.2495117-14.3317871,47.3867188-30.3410645,69.2531738-47.8728027
		c34.0056152-27.2556152,64.9403076-58.1904297,92.199585-92.1960449
		c6.4943848-8.1035156,12.7799072-16.3764648,18.8531494-24.8220215c5.036377-7.0019531,9.9216309-14.1191406,14.6519775-21.3479004
		H2883.5996094z"/>
	<rect x="874.7998657" y="1542.2397461" class="st1" width="323.999939" height="38.8799934"/>
	<rect x="874.7990112" y="1600.5596924" class="st2" width="323.999939" height="38.8799934"/>
	<rect x="874.7998657" y="1658.8797607" class="st3" width="323.999939" height="38.8799934"/>
</g>
</svg>
