<svg xmlns="http://www.w3.org/2000/svg" version="1.1" xmlns:xlink="http://www.w3.org/1999/xlink" xmlns:svgjs="http://svgjs.com/svgjs" width="512" height="512" x="0" y="0" viewBox="0 0 424.416 424.416" style="enable-background:new 0 0 512 512" xml:space="preserve" class=""><g><path d="M151.236 34.205h10.504v103.21h-10.504zM156.491 203.598c-13.52 0-24.519-11-24.519-24.52h10.504c0 7.729 6.287 14.016 14.015 14.016 7.729 0 14.016-6.287 14.016-14.016 0-7.728-6.287-14.016-14.016-14.016h-5.252v-21.113h10.504v11.175c11.005 2.411 19.268 12.236 19.268 23.954 0 13.521-11 24.52-24.52 24.52z" style="" fill="#bababa" data-original="#bababa"></path><circle cx="156.496" cy="137.415" r="10.954" style="" fill="#ff6969" data-original="#ff6969"></circle><path d="m233.483 264.934-18.366-5.142a9.197 9.197 0 0 1-6.72-8.858v-3.654a7.374 7.374 0 0 0-5.03-6.992l-69.701-27.501a31.859 31.859 0 0 0-20.262.001l-69.677 27.5a7.375 7.375 0 0 0-5.031 6.993v3.653a9.197 9.197 0 0 1-6.719 8.858l-18.366 5.142a5.43 5.43 0 0 0-3.966 5.229v21.284h227.803v-21.285a5.43 5.43 0 0 0-3.965-5.228z" style="" fill="#d1d1d1" data-original="#d1d1d1" class=""></path><path d="m237.424 281.129-77.43-9.943a286.208 286.208 0 0 0-72.919 0l-77.43 9.943v46.412c0 32.078 20.437 60.592 50.813 70.896l54.881 18.619a25.508 25.508 0 0 0 16.39 0l54.881-18.619c30.377-10.305 50.813-38.818 50.813-70.896v-46.412h.001z" style="" fill="#3e5768" data-original="#3e5768"></path><path d="M123.56 291.447v-60.481c0-3.82-3.452-6.713-7.214-6.045l-70.518 14.663-2.101.704a7.375 7.375 0 0 0-5.031 6.993v3.653a9.197 9.197 0 0 1-6.719 8.858l-18.366 5.142a5.43 5.43 0 0 0-3.966 5.229v21.284H123.56z" style="" fill="#969696" data-original="#969696" class=""></path><path d="M123.56 268.854a286.115 286.115 0 0 0-36.484 2.331l-77.43 9.943v46.412c0 32.078 20.437 60.592 50.813 70.896l54.881 18.619a25.53 25.53 0 0 0 8.22 1.351V268.854z" style="" fill="#2a424c" data-original="#2a424c"></path><path d="M123.325 365.6c-40.491 0-78.404-6.597-110.961-18.074 6.503 23.476 24.227 42.815 48.095 50.912l54.881 18.619a25.508 25.508 0 0 0 16.39 0l54.881-18.619c23.933-8.119 41.687-27.543 48.146-51.104C202.09 358.918 164.02 365.6 123.325 365.6z" style="" fill="#ff6969" data-original="#ff6969"></path><path d="M259.65 283.447v28.786a4.337 4.337 0 0 0 4.337 4.337h21.508V423.339h138.917V279.11H263.987a4.338 4.338 0 0 0-4.337 4.337z" style="" fill="#d1d1d1" data-original="#d1d1d1" class=""></path><path d="m123.56 365.598-.234.002c-40.491 0-78.404-6.597-110.961-18.074 6.503 23.476 24.227 42.815 48.095 50.912l54.881 18.619a25.53 25.53 0 0 0 8.22 1.351v-52.81h-.001z" style="" fill="#d14343" data-original="#d14343"></path><circle cx="170.606" cy="315.815" r="11.931" style="" fill="#333333" data-original="#333333"></circle><circle cx="75.326" cy="315.815" r="11.931" style="" fill="#333333" data-original="#333333"></circle><path d="M285.496 316.575h138.92v26.2h-138.92z" style="" fill="#969696" data-original="#969696" class=""></path><path d="M0 391.275h285.5v32.07H0z" style="" fill="#87c3d8" data-original="#87c3d8"></path><path d="M341.876 32.225h21.405v218.42h-21.405z" style="" fill="#f48521" data-original="#f48521" class=""></path><path d="M341.876 228.355h21.405v22.288h-21.405z" style="" fill="#aa5413" data-original="#aa5413"></path><path d="M387.65 246.828h-70.148a6.194 6.194 0 0 0-6.195 6.194v26.088h82.539v-26.088a6.195 6.195 0 0 0-6.196-6.194z" style="" fill="#f48521" data-original="#f48521" class=""></path><path d="M341.876 167.725h21.405v19.12h-21.405z" style="" fill="#aa5413" data-original="#aa5413"></path><path d="M374.942 174.192h-63.851a3.152 3.152 0 0 1-3.151-3.152v-15.009a3.152 3.152 0 0 1 3.151-3.152h63.851a3.152 3.152 0 0 1 3.152 3.152v15.009a3.15 3.15 0 0 1-3.152 3.152z" style="" fill="#f48521" data-original="#f48521" class=""></path><path d="M341.876 32.225h21.405v13.698h-21.405z" style="" fill="#aa5413" data-original="#aa5413"></path><path d="m299.494 11.641 111.466.966c5.432.099 8.717 6.316 5.912 11.193l-21.413 37.245c-1.532 2.664-4.304 4.272-7.271 4.218l-7.605-.138c-2.292-.042-4.013-2.193-3.639-4.562 1.386-8.782 2.808-27.431-10.064-27.664l-55.834.042c-4.144-.075-7.941-2.427-9.996-6.192l-4.963-9.092c-1.477-2.706.428-6.07 3.407-6.016zM160.326 2.134a6.702 6.702 0 0 0-6.839-.242c-2.151 1.176-3.489 3.431-3.489 5.979l.472 28.25c0 5.607 2.658 10.99 7.135 14.414l153.394 116.25 40.701.211v-38.128L160.326 2.134zm46.823 44.891 34.488 22.839h-34.488V47.025zm-11.575 17.763-26.922-20.403 26.922.393v20.01zm56.912 16.65v26.479l-34.94-26.479h34.94zm11.575 3.275 43.31 28.681h-43.31V84.713zm-77.995-51.65-24.077-.351-.264-15.769 24.341 16.12zm88.92 91.906h45.231v30.289l-5.3-.027-39.931-30.262zm65.139 30.391-8.333-.043v-25.751l8.333 5.519v20.275z" style="" fill="#f48521" data-original="#f48521" class=""></path></g></svg>