<svg xmlns="http://www.w3.org/2000/svg" version="1.1" xmlns:xlink="http://www.w3.org/1999/xlink" xmlns:svgjs="http://svgjs.com/svgjs" width="512" height="512" x="0" y="0" viewBox="0 0 128 128" style="enable-background:new 0 0 512 512" xml:space="preserve" class=""><g><linearGradient id="a"><stop offset="0" stop-color="#58595b"></stop><stop offset="1" stop-color="#414042"></stop></linearGradient><linearGradient xlink:href="#a" id="f" x1="31" x2="31" y1="115.23" y2="137.438" gradientUnits="userSpaceOnUse"></linearGradient><linearGradient xlink:href="#a" id="g" x1="35" x2="35" y1="99.267" y2="132.493" gradientUnits="userSpaceOnUse"></linearGradient><linearGradient xlink:href="#a" id="h" x1="27" x2="27" y1="99.267" y2="132.493" gradientUnits="userSpaceOnUse"></linearGradient><linearGradient xlink:href="#a" id="i" x1="97" x2="97" y1="115.23" y2="137.438" gradientUnits="userSpaceOnUse"></linearGradient><linearGradient xlink:href="#a" id="j" x1="93" x2="93" y1="99.267" y2="132.493" gradientUnits="userSpaceOnUse"></linearGradient><linearGradient xlink:href="#a" id="k" x1="101" x2="101" y1="99.267" y2="132.493" gradientUnits="userSpaceOnUse"></linearGradient><linearGradient id="b"><stop offset=".397" stop-color="#98a2a3"></stop><stop offset=".984" stop-color="#7b8c94"></stop></linearGradient><linearGradient xlink:href="#b" id="l" x1="64" x2="64" y1="86.014" y2="110.729" gradientUnits="userSpaceOnUse"></linearGradient><linearGradient id="c"><stop offset="0" stop-color="#88cccd"></stop><stop offset=".996" stop-color="#61b2b3"></stop></linearGradient><linearGradient xlink:href="#c" id="m" x1="64" x2="64" y1="17.404" y2="45.369" gradientUnits="userSpaceOnUse"></linearGradient><linearGradient xlink:href="#a" id="n" x1="64" x2="64" y1="78.871" y2="106.19" gradientUnits="userSpaceOnUse"></linearGradient><linearGradient xlink:href="#b" id="o" x1="64" x2="64" y1=".399" y2="17.672" gradientUnits="userSpaceOnUse"></linearGradient><linearGradient xlink:href="#c" id="p" x1="64" x2="64" y1="3.156" y2="30.74" gradientUnits="userSpaceOnUse"></linearGradient><linearGradient xlink:href="#a" id="q" x1="11" x2="11" y1="35.787" y2="58.819" gradientUnits="userSpaceOnUse"></linearGradient><linearGradient xlink:href="#b" id="r" x1="16" x2="16" y1="40.843" y2="54.648" gradientUnits="userSpaceOnUse"></linearGradient><linearGradient xlink:href="#b" id="s" x1="28.049" x2="28.049" y1="57.511" y2="75.155" gradientUnits="userSpaceOnUse"></linearGradient><linearGradient id="d"><stop offset="0" stop-color="#f1f2f2"></stop><stop offset="1" stop-color="#e6e7e8"></stop></linearGradient><linearGradient xlink:href="#d" id="t" x1="25" x2="25" y1="78.934" y2="100.576" gradientUnits="userSpaceOnUse"></linearGradient><linearGradient xlink:href="#d" id="u" x1="21.5" x2="21.5" y1="114.88" y2="131.245" gradientUnits="userSpaceOnUse"></linearGradient><linearGradient xlink:href="#a" id="v" x1="117" x2="117" y1="35.787" y2="58.819" gradientUnits="userSpaceOnUse"></linearGradient><linearGradient xlink:href="#b" id="w" x1="112" x2="112" y1="40.843" y2="54.648" gradientUnits="userSpaceOnUse"></linearGradient><linearGradient xlink:href="#a" id="x" x1="64" x2="64" y1="38.582" y2="64.328" gradientUnits="userSpaceOnUse"></linearGradient><linearGradient xlink:href="#b" id="y" x1="99.951" x2="99.951" y1="57.511" y2="75.155" gradientUnits="userSpaceOnUse"></linearGradient><linearGradient xlink:href="#a" id="z" x1="64" x2="64" y1="63.099" y2="73.497" gradientUnits="userSpaceOnUse"></linearGradient><linearGradient xlink:href="#a" id="A" x1="64" x2="64" y1="71.103" y2="79.697" gradientUnits="userSpaceOnUse"></linearGradient><linearGradient xlink:href="#d" id="B" x1="103" x2="103" y1="78.934" y2="100.576" gradientUnits="userSpaceOnUse"></linearGradient><linearGradient xlink:href="#d" id="C" x1="106.5" x2="106.5" y1="114.88" y2="131.245" gradientUnits="userSpaceOnUse"></linearGradient><linearGradient xlink:href="#a" id="D" x1="64" x2="64" y1="105.01" y2="123.305" gradientUnits="userSpaceOnUse"></linearGradient><linearGradient id="e"><stop offset="0" stop-color="#ffd486"></stop><stop offset="1" stop-color="#ffb76a"></stop></linearGradient><linearGradient xlink:href="#e" id="E" x1="32" x2="32" y1="15.756" y2="28.847" gradientUnits="userSpaceOnUse"></linearGradient><linearGradient xlink:href="#e" id="F" x1="48" x2="48" y1="15.756" y2="28.847" gradientUnits="userSpaceOnUse"></linearGradient><linearGradient xlink:href="#e" id="G" x1="64" x2="64" y1="15.756" y2="28.847" gradientUnits="userSpaceOnUse"></linearGradient><linearGradient xlink:href="#e" id="H" x1="96" x2="96" y1="15.756" y2="28.847" gradientUnits="userSpaceOnUse"></linearGradient><linearGradient xlink:href="#e" id="I" x1="80" x2="80" y1="15.756" y2="28.847" gradientUnits="userSpaceOnUse"></linearGradient><linearGradient xlink:href="#a" id="J" x1="47" x2="47" y1="21.08" y2="33.794" gradientUnits="userSpaceOnUse"></linearGradient><linearGradient xlink:href="#c" id="K" x1="64" x2="64" y1="42.911" y2="68.914" gradientUnits="userSpaceOnUse"></linearGradient><linearGradient xlink:href="#c" id="L" x1="29.674" x2="29.674" y1="65.136" y2="80.62" gradientUnits="userSpaceOnUse"></linearGradient><linearGradient xlink:href="#c" id="M" x1="98.326" x2="98.326" y1="65.136" y2="80.62" gradientUnits="userSpaceOnUse"></linearGradient><linearGradient xlink:href="#e" id="N" x1="21.5" x2="21.5" y1="67.86" y2="80.398" gradientUnits="userSpaceOnUse"></linearGradient><linearGradient xlink:href="#e" id="O" x1="106.5" x2="106.5" y1="67.86" y2="80.398" gradientUnits="userSpaceOnUse"></linearGradient><path fill="url(#f)" d="M26.697 126h8.607a5.697 5.697 0 0 0 5.697-5.697V98.697A5.698 5.698 0 0 0 35.303 93h-8.607A5.696 5.696 0 0 0 21 98.697v21.607A5.696 5.696 0 0 0 26.697 126z" data-original="url(#f)"></path><path fill="url(#g)" d="M37 125.743a5.696 5.696 0 0 1-1.697.257H33V93h2.303c.591 0 1.161.09 1.697.257z" data-original="url(#g)"></path><path fill="url(#h)" d="M25 125.743a5.696 5.696 0 0 0 1.697.257H29V93h-2.303c-.591 0-1.161.09-1.697.257z" data-original="url(#h)"></path><path fill="url(#i)" d="M101.303 126h-8.607A5.696 5.696 0 0 1 87 120.303V98.697A5.696 5.696 0 0 1 92.697 93h8.607a5.697 5.697 0 0 1 5.697 5.697v21.607a5.697 5.697 0 0 1-5.698 5.696z" data-original="url(#i)"></path><path fill="url(#j)" d="M91 125.743a5.696 5.696 0 0 0 1.697.257H95V93h-2.303c-.591 0-1.161.09-1.697.257z" data-original="url(#j)"></path><path fill="url(#k)" d="M103 125.743a5.696 5.696 0 0 1-1.697.257H99V93h2.303c.591 0 1.161.09 1.697.257z" data-original="url(#k)"></path><path fill="url(#l)" d="M107.415 84h-86.83A4.585 4.585 0 0 0 16 88.585v10.751c0 2.963 1.787 5.621 4.515 6.775C32.533 111.196 47.148 113.357 64 113c16.852.357 31.467-1.804 43.485-6.888A7.363 7.363 0 0 0 112 99.337V88.585A4.585 4.585 0 0 0 107.415 84z" data-original="url(#l)"></path><path fill="url(#m)" d="M102.049 2H25.951C20 2 19 16 19 22v63c12.759 8.564 28.289 10.073 45 10 16.711.073 32.241-1.436 45-10V22c0-6-1-20-6.951-20z" data-original="url(#m)" class=""></path><path fill="url(#n)" d="M92.95 66h-57.9c-.38 0-.75-.02-1.12-.06l6.43 27.35c6.83 1.28 14.06 1.68 21.54 1.7.7.01 1.4.01 2.1.01s1.4 0 2.1-.01c7.47-.02 14.69-.42 21.51-1.69l6.46-27.36c-.37.04-.74.06-1.12.06z" data-original="url(#n)"></path><path fill="url(#o)" d="M102.049 2H25.951C20 2 19 16 19 22h90c0-6-1-20-6.951-20z" data-original="url(#o)" class=""></path><path fill="url(#p)" d="M94.439 2H33.561C28.8 2 28 16 28 22h72c0-6-.8-20-5.561-20z" data-original="url(#p)"></path><path fill="url(#q)" d="M12.176 59H9.824A2.824 2.824 0 0 1 7 56.176V37.824A2.824 2.824 0 0 1 9.824 35h2.352A2.824 2.824 0 0 1 15 37.824v18.352A2.824 2.824 0 0 1 12.176 59z" data-original="url(#q)"></path><path fill="url(#r)" d="M19 54h-6a2 2 0 0 1-2-2v-8a2 2 0 0 1 4 0v6h4a2 2 0 0 1 0 4z" data-original="url(#r)"></path><path fill="url(#s)" d="M33.928 65.944a12.46 12.46 0 0 1-6.198-2.334L19 57.2v16.646l18.098 5.568z" data-original="url(#s)"></path><path fill="url(#t)" d="M16 89.455v9.882a7.345 7.345 0 0 0 4.481 6.761c4.193 1.777 8.709 3.189 13.519 4.27v-8.499a8.379 8.379 0 0 0-5.515-7.874z" data-original="url(#t)"></path><path fill="url(#u)" d="M27 102a7 7 0 0 0-7-7 6.962 6.962 0 0 0-4 1.26v3.077a7.345 7.345 0 0 0 4.481 6.761 71.24 71.24 0 0 0 3.768 1.456A6.981 6.981 0 0 0 27 102z" data-original="url(#u)"></path><path fill="url(#v)" d="M115.824 59h2.352A2.824 2.824 0 0 0 121 56.176V37.824A2.824 2.824 0 0 0 118.176 35h-2.352A2.824 2.824 0 0 0 113 37.824v18.352A2.824 2.824 0 0 0 115.824 59z" data-original="url(#v)" class=""></path><path fill="url(#w)" d="M109 54h6a2 2 0 0 0 2-2v-8a2 2 0 0 0-4 0v6h-4a2 2 0 0 0 0 4z" data-original="url(#w)"></path><path fill="url(#x)" d="M97.672 26H30.328A6.328 6.328 0 0 0 24 32.328V53h80V32.328A6.328 6.328 0 0 0 97.672 26z" data-original="url(#x)" class=""></path><path fill="url(#y)" d="M94.072 65.944a12.46 12.46 0 0 0 6.198-2.334L109 57.2v16.646l-18.098 5.568z" data-original="url(#y)"></path><path fill="url(#z)" d="M64 72H43l1 5h40l1-5z" data-original="url(#z)"></path><path fill="url(#A)" d="M64 83H46l.857 5h34.286L82 83z" data-original="url(#A)"></path><path fill="url(#B)" d="M112 89.455v9.882a7.345 7.345 0 0 1-4.481 6.761c-4.193 1.777-8.709 3.189-13.519 4.27v-8.499a8.379 8.379 0 0 1 5.515-7.874z" data-original="url(#B)"></path><path fill="url(#C)" d="M101 102a7 7 0 0 1 7-7c1.488 0 2.866.468 4 1.26v3.077a7.345 7.345 0 0 1-4.481 6.761 71.24 71.24 0 0 1-3.768 1.456A6.981 6.981 0 0 1 101 102z" data-original="url(#C)"></path><path fill="url(#D)" d="M89.684 100.658a3.003 3.003 0 0 0-4.016-1.346C85.548 99.37 77.938 103 64 103s-21.548-3.63-21.668-3.688a3.004 3.004 0 0 0-4.016 1.346 3.001 3.001 0 0 0 1.342 4.025C40.011 104.859 48.471 109 64 109s23.989-4.141 24.342-4.317a3.002 3.002 0 0 0 1.342-4.025z" data-original="url(#D)"></path><circle cx="32" cy="24" r="5" fill="url(#E)" data-original="url(#E)"></circle><circle cx="48" cy="24" r="5" fill="url(#F)" data-original="url(#F)"></circle><circle cx="64" cy="24" r="5" fill="url(#G)" data-original="url(#G)"></circle><circle cx="96" cy="24" r="5" fill="url(#H)" data-original="url(#H)"></circle><circle cx="80" cy="24" r="5" fill="url(#I)" data-original="url(#I)"></circle><path fill="url(#J)" d="M47 65c-6.617 0-12-5.383-12-12s5.383-12 12-12 12 5.383 12 12-5.383 12-12 12zm0-20c-4.411 0-8 3.589-8 8s3.589 8 8 8 8-3.589 8-8-3.589-8-8-8z" data-original="url(#J)"></path><path fill="url(#K)" d="M100.265 50.606A12.37 12.37 0 0 1 92.951 53H35.049a12.37 12.37 0 0 1-7.314-2.394L19 44.2v13l8.735 6.406A12.37 12.37 0 0 0 35.049 66h57.902a12.37 12.37 0 0 0 7.314-2.394L109 57.2v-13z" data-original="url(#K)"></path><path fill="url(#L)" d="M40.349 93.289c-7.056-1.313-13.685-3.555-19.73-7.271L19 85V73.846l18.098 5.568.42 1.786 2.723 11.581z" data-original="url(#L)"></path><path fill="url(#M)" d="M87.651 93.289c7.056-1.313 13.685-3.555 19.73-7.271L109 85V73.846l-18.098 5.568-.42 1.786-2.722 11.581z" data-original="url(#M)"></path><path fill="url(#N)" d="M26 76h-6.037A2.964 2.964 0 0 1 17 73.037v-3.511a1.972 1.972 0 0 1 2.45-1.913l4.277 1.069A3 3 0 0 1 26 71.592z" data-original="url(#N)"></path><path fill="url(#O)" d="M102 76h6.037A2.963 2.963 0 0 0 111 73.037v-3.511a1.972 1.972 0 0 0-2.45-1.913l-4.277 1.069a3 3 0 0 0-2.272 2.91V76z" data-original="url(#O)"></path><g fill="#3a322b"><path d="M118.176 34h-2.352A3.828 3.828 0 0 0 112 37.824v6.016c0 .019.01.035.011.053-.001.037-.011.07-.011.107v5h-2V22c0-4.926-.573-21-7.951-21H25.951C18.573 1 18 17.074 18 22v27h-2v-5c0-.037-.01-.07-.011-.107.001-.018.011-.034.011-.053v-6.016A3.828 3.828 0 0 0 12.176 34H9.824A3.828 3.828 0 0 0 6 37.824v18.352A3.828 3.828 0 0 0 9.824 60h2.352A3.828 3.828 0 0 0 16 56.176V55h2v11.736a2.944 2.944 0 0 0-.856.447A2.953 2.953 0 0 0 16 69.526v3.511c0 1.468.811 2.737 2 3.422v7.188a5.537 5.537 0 0 0-3 4.938v10.751c0 3.31 1.961 6.286 5 7.632v13.336c0 2.962 1.935 5.477 4.606 6.357l.014.005a6.663 6.663 0 0 0 2.076.334h8.607c.725 0 1.422-.119 2.076-.333l.015-.005c2.671-.881 4.605-3.396 4.605-6.357v-7.49c6.78.948 14.117 1.349 21.979 1.186 1.176.025 2.337.037 3.488.037 6.576 0 12.758-.412 18.533-1.22v7.487c0 2.962 1.935 5.477 4.605 6.357l.015.005a6.663 6.663 0 0 0 2.076.334h8.607c.725 0 1.422-.119 2.076-.333l.015-.005c2.671-.881 4.605-3.396 4.605-6.357V106.97c3.039-1.346 5-4.321 5-7.632V88.585a5.543 5.543 0 0 0-3-4.936v-7.19c1.189-.685 2-1.954 2-3.422v-3.511c0-.922-.417-1.776-1.144-2.343a2.956 2.956 0 0 0-.856-.447V55h2v1.176A3.828 3.828 0 0 0 115.822 60h2.352a3.828 3.828 0 0 0 3.824-3.824V37.824A3.825 3.825 0 0 0 118.176 34zM108 66.719l-3.97.992a3.993 3.993 0 0 0-3.03 3.88v3.669l-8.738 2.688 2.623-11.095a13.283 13.283 0 0 0 5.972-2.443L108 59.174zM20 77h5.878c.013.005.022.015.036.02l10.341 3.182 2.783 11.825C32.321 90.629 25.867 88.305 20 84.463zm6.09-54c-.055.326-.09.659-.09 1 0 .759.147 1.482.405 2.151A7.267 7.267 0 0 0 23 32.328v13.565l-3-2.2V23zm7.472-20h60.877c2.355 0 4.134 6.381 4.494 15.771A5.958 5.958 0 0 0 96 18a5.999 5.999 0 0 0-5.188 3h-5.624c-1.039-1.79-2.973-3-5.188-3s-4.149 1.21-5.188 3h-5.624c-1.039-1.79-2.973-3-5.188-3s-4.149 1.21-5.188 3h-5.624c-1.039-1.79-2.973-3-5.188-3s-4.149 1.21-5.188 3h-5.624A5.999 5.999 0 0 0 32 18a5.958 5.958 0 0 0-2.933.771C29.427 9.381 31.207 3 33.562 3zM108 43.693l-3 2.2V32.328c0-2.512-1.315-4.845-3.405-6.178A5.958 5.958 0 0 0 102 24c0-.341-.035-.674-.09-1H108zM55.939 52c-.505-4.475-4.361-8-8.939-8-4.583 0-8.434 3.523-8.94 8h-2.005c.512-5.586 5.248-10 10.945-10s10.433 4.414 10.945 10zm-2.017 0H40.078c.492-3.376 3.434-6 6.922-6 3.485 0 6.43 2.626 6.922 6zm6.024 0C59.429 45.313 53.794 40 47 40c-6.779 0-12.404 5.289-12.943 11.954a11.276 11.276 0 0 1-5.73-2.156L25 47.36V32.328c0-1.83.915-3.482 2.421-4.46A5.985 5.985 0 0 0 32 30a5.999 5.999 0 0 0 5.188-3h5.624c1.039 1.79 2.973 3 5.188 3s4.149-1.21 5.188-3h5.624c1.039 1.79 2.973 3 5.188 3s4.149-1.21 5.188-3h5.624c1.039 1.79 2.973 3 5.188 3s4.149-1.21 5.188-3h5.624A5.999 5.999 0 0 0 96 30c1.835 0 3.479-.83 4.58-2.133a5.359 5.359 0 0 1 2.42 4.461V47.36l-3.325 2.439A11.3 11.3 0 0 1 92.951 52zM100 24c0 2.206-1.794 4-4 4s-4-1.794-4-4 1.794-4 4-4 4 1.794 4 4zm-9.91 1h-4.18c.055-.326.09-.659.09-1s-.035-.674-.09-1h4.181c-.056.326-.091.659-.091 1s.035.674.09 1zM84 24c0 2.206-1.794 4-4 4s-4-1.794-4-4 1.794-4 4-4 4 1.794 4 4zm-9.91 1h-4.18c.055-.326.09-.659.09-1s-.035-.674-.09-1h4.181c-.056.326-.091.659-.091 1s.035.674.09 1zM68 24c0 2.206-1.794 4-4 4s-4-1.794-4-4 1.794-4 4-4 4 1.794 4 4zm-9.91 1h-4.18c.055-.326.09-.659.09-1s-.035-.674-.09-1h4.181c-.056.326-.091.659-.091 1s.035.674.09 1zM52 24c0 2.206-1.794 4-4 4s-4-1.794-4-4 1.794-4 4-4 4 1.794 4 4zm-9.91 1h-4.18c.055-.326.09-.659.09-1s-.035-.674-.09-1h4.181c-.056.326-.091.659-.091 1s.035.674.09 1zM36 24c0 2.206-1.794 4-4 4s-4-1.794-4-4 1.794-4 4-4 4 1.794 4 4zm-8.856 27.412A13.283 13.283 0 0 0 35.049 54h57.902c2.862 0 5.596-.895 7.906-2.588L108 46.174v10.519l-8.325 6.106A11.3 11.3 0 0 1 92.951 65H35.049c-2.435 0-4.759-.761-6.723-2.201L20 56.693V46.174zM88.09 87h-5.762l.657-3.831A.997.997 0 0 0 82 82H46a1.002 1.002 0 0 0-.986 1.168L45.672 87h-5.779l-2.11-9h52.425zM47.7 87l-.514-3h33.627l-.513 3zm-3.48-14h39.56l-.6 3H44.82zm46.458 3H85.22l.761-3.804A1.001 1.001 0 0 0 85 71H43a.998.998 0 0 0-.98 1.196L42.78 76h-5.467l-2.11-9h57.593zM20 59.174l7.144 5.238a13.27 13.27 0 0 0 5.992 2.446c.004.033-.005.066.003.099l2.586 10.989L27 75.262v-3.669a3.993 3.993 0 0 0-3.03-3.88L20 66.719zm21.17 33.273L40.362 89H87.62l-.738 3.136-.084.313C79.334 93.774 71.59 94.037 63.996 94c-7.606.04-15.358-.223-22.826-1.553zm50.559-12.241 10.205-3.14c.046-.014.08-.046.122-.066H108v7.463c-5.873 3.845-12.338 6.169-19.066 7.565zM107.992 21h-6.804c-.065-.112-.13-.224-.202-.332C100.818 10.408 99.335 5.379 97.67 3h4.379c3.94 0 5.812 9.146 5.943 18zM25.951 3h4.379c-1.665 2.379-3.149 7.408-3.317 17.668-.072.107-.137.22-.202.332h-6.804c.132-8.854 2.004-18 5.944-18zM14 56.176A1.826 1.826 0 0 1 12.176 58H9.824A1.826 1.826 0 0 1 8 56.176V37.824C8 36.818 8.818 36 9.824 36h2.352c1.006 0 1.824.818 1.824 1.824v3.36A2.966 2.966 0 0 0 13 41c-1.654 0-3 1.346-3 3v8c0 1.654 1.346 3 3 3h1zM13 53c-.552 0-1-.449-1-1v-8a1.001 1.001 0 0 1 2 0v6a1 1 0 0 0 1 1h3v2zm5 16.526a.97.97 0 0 1 1.208-.943l4.277 1.069A1.997 1.997 0 0 1 25 71.592V75h-5.037A1.966 1.966 0 0 1 18 73.037zm14 41.395V125h-2v-14.599c.661.178 1.325.354 2 .52zm1-1.818a82.191 82.191 0 0 1-6.891-1.961A7.94 7.94 0 0 0 28 102c0-4.411-3.589-8-8-8-1.036 0-2.05.215-3 .602v-3.72l11.144 4.052A7.402 7.402 0 0 1 33 101.869zm-16-9.767v-2.515A5.966 5.966 0 0 1 20 96c3.309 0 6 2.691 6 6a5.962 5.962 0 0 1-1.962 4.416 70.33 70.33 0 0 1-3.133-1.225A6.36 6.36 0 0 1 17 99.336zm5 20.968v-12.516a72.53 72.53 0 0 0 2 .742v15.608a4.69 4.69 0 0 1-2-3.834zm4 4.626v-15.721c.659.214 1.325.422 2 .622V125h-1.304c-.238 0-.467-.036-.696-.07zm8 .07v-13.62c.66.146 1.328.284 2 .418v13.131c-.229.034-.458.07-.696.07H34zm6-4.696a4.686 4.686 0 0 1-2 3.833v-11.959c.663.118 1.325.237 2 .344zm48 0v-7.786c.672-.107 1.34-.217 2-.335v11.954a4.687 4.687 0 0 1-2-3.833zm4 4.626v-13.12a97.906 97.906 0 0 0 2-.426V125h-1.304c-.238 0-.467-.036-.696-.07zm19-30.325a7.943 7.943 0 0 0-3-.605c-4.411 0-8 3.589-8 8a7.94 7.94 0 0 0 1.891 5.141A81.6 81.6 0 0 1 95 109.102v-7.234a7.401 7.401 0 0 1 4.856-6.934L111 90.882zM98 110.4V125h-2v-14.084c.674-.166 1.34-.338 2-.516zm2 14.6v-15.167c.674-.2 1.342-.406 2-.621v15.717c-.229.034-.458.07-.696.07H100zm4-.863v-15.604a71.35 71.35 0 0 0 2-.743v12.514a4.687 4.687 0 0 1-2 3.833zm3.095-18.946a68.624 68.624 0 0 1-3.132 1.224A5.957 5.957 0 0 1 102 102c0-3.309 2.691-6 6-6a5.95 5.95 0 0 1 3 .825v2.512a6.359 6.359 0 0 1-3.905 5.854zM111 88.585v.169l-11.827 4.301A9.407 9.407 0 0 0 93 101.869v7.691c-8.591 1.847-18.293 2.667-29.021 2.44-10.697.227-20.391-.592-28.979-2.44v-7.692a9.407 9.407 0 0 0-6.173-8.814L17 88.754v-.169a3.56 3.56 0 0 1 1.369-2.819c.025.021.046.046.074.064C31.929 94.883 48.291 96.052 63.996 96c.398.002.797.002 1.196.002 15.327 0 31.222-1.35 44.365-10.172.027-.018.048-.042.073-.063a3.563 3.563 0 0 1 1.37 2.818zm-1-15.548A1.965 1.965 0 0 1 108.037 75H103v-3.408c0-.919.623-1.717 1.515-1.94l4.278-1.069a.97.97 0 0 1 1.207.943zM110 51h3a1 1 0 0 0 1-1v-6a1.001 1.001 0 0 1 2 0v8c0 .551-.448 1-1 1h-5zm10 5.176A1.826 1.826 0 0 1 118.176 58h-2.352A1.826 1.826 0 0 1 114 56.176V55h1c1.654 0 3-1.346 3-3v-8c0-1.654-1.346-3-3-3-.352 0-.686.072-1 .184v-3.36c0-1.006.818-1.824 1.824-1.824h2.352c1.006 0 1.824.818 1.824 1.824z" fill="#3a322b" data-original="#3a322b" class=""></path><path d="M90.578 100.21c-.986-1.967-3.386-2.771-5.346-1.799C85.158 98.448 77.624 102 64 102s-21.158-3.552-21.224-3.583a4.009 4.009 0 0 0-5.354 1.795 4.006 4.006 0 0 0 1.789 5.366c.361.18 9.026 4.422 24.789 4.422s24.428-4.242 24.789-4.422a4.008 4.008 0 0 0 1.789-5.368zm-2.683 3.579C87.551 103.96 79.296 108 64 108s-23.551-4.04-23.895-4.211a2.003 2.003 0 0 1-.895-2.683 2.004 2.004 0 0 1 2.686-.894c.32.155 7.993 3.788 22.104 3.788s21.784-3.633 22.112-3.792a2.005 2.005 0 0 1 2.677.898c.492.987.091 2.19-.894 2.683z" fill="#3a322b" data-original="#3a322b" class=""></path></g></g></svg>